<svg xmlns="http://www.w3.org/2000/svg" width="18" height="53" viewBox="0 0 18 53" fill="none"><path d="M0.500664 21.4105C0.480664 17.7005 0.910667 14.0606 2.05067 10.5206C3.05067 7.41056 4.62066 4.61055 6.90066 2.27056C7.60066 1.55055 8.47066 0.940547 9.36066 0.480547C11.2207 -0.479453 13.2107 0.0505514 14.6207 1.61055C17.6407 4.95055 17.8307 8.90056 16.9707 12.9906C16.3307 16.0506 15.0707 18.9205 13.7007 21.7305C11.4307 26.4205 9.23067 31.1505 7.91067 36.2205C7.61067 37.3805 6.76066 38.1405 5.92066 38.8605C5.38066 39.3306 4.62067 39.3306 4.13067 38.7106C3.67067 38.1206 3.23066 37.4605 2.98066 36.7605C1.26066 31.8105 0.530664 26.6605 0.500664 21.4105Z" fill="#BFACE3"></path><path d="M4.22104 44.3306C6.10104 44.3606 7.41104 45.3006 7.96104 46.6806C8.52104 48.0806 8.16103 49.8906 7.04103 50.8906C6.11103 51.7206 5.09104 52.2706 3.72104 52.0506C1.72104 51.7306 0.511031 49.2706 1.20103 47.6106C1.39103 47.1406 1.54104 46.6506 1.77104 46.2006C2.38104 45.0406 3.31104 44.3406 4.22104 44.3306Z" fill="#BFACE3"></path></svg>