<svg xmlns="http://www.w3.org/2000/svg" width="79" height="42" viewBox="0 0 79 42" fill="none"><path d="M38.2318 22.6307C36.2564 26.1418 34.6593 29.116 32.852 32.0075C31.5071 34.1555 30.1201 36.3448 28.3549 38.1211C23.2693 43.3258 16.5026 43.4084 12.2576 37.6667C7.88657 31.7184 4.27204 25.1917 0.7836 18.6651C-0.939605 15.4431 0.321275 12.7168 3.17927 11.0645C5.7851 9.5361 8.01266 9.90789 10.4083 12.9233C13.7287 17.0541 16.7127 21.4327 20.3693 26.4723C22.8911 22.4241 25.4128 18.913 27.3882 15.1127C31.7172 6.8098 38.9043 7.05764 44.7043 10.4862C49.0754 13.0473 53.1102 16.2279 57.9856 19.6152C60.5494 15.0713 62.9451 10.6927 65.4248 6.39672C66.2654 4.95095 66.9799 3.33996 68.1147 2.14203C70.006 0.159261 72.3597 -0.666905 75.0916 0.613634C78.0336 1.97679 79.7148 4.49656 78.7061 7.26418C75.68 15.8149 72.864 24.6134 65.9712 31.14C61.7682 35.1056 57.145 35.436 51.8073 32.1727C47.3942 29.3638 43.1492 26.1005 38.2318 22.6307Z" fill="#3AC4E5"></path></svg>