<svg xmlns="http://www.w3.org/2000/svg" width="53" height="29" viewBox="0 0 53 29" fill="none"><path d="M25.6492 15.6259C24.3239 18.0503 23.2524 20.1039 22.04 22.1004C21.1377 23.5836 20.2072 25.0952 19.0229 26.3217C15.6111 29.9155 11.0714 29.9725 8.22347 26.0079C5.29099 21.9008 2.86605 17.3943 0.525706 12.8878C-0.630368 10.6631 0.215539 8.78064 2.13293 7.63976C3.88114 6.58445 5.37558 6.84116 6.98281 8.92327C9.21036 11.7755 11.2123 14.7988 13.6655 18.2785C15.3573 15.4833 17.0491 13.059 18.3744 10.4349C21.2787 4.70201 26.1003 4.87313 29.9915 7.24046C32.924 9.00882 35.6309 11.205 38.9017 13.5438C40.6217 10.4064 42.229 7.38307 43.8926 4.41678C44.4565 3.41851 44.9359 2.30616 45.6972 1.47902C46.9661 0.109966 48.5451 -0.460482 50.3779 0.4237C52.3517 1.36493 53.4796 3.10477 52.8028 5.01574C50.7726 10.9198 48.8835 16.995 44.2592 21.5015C41.4395 24.2396 38.3378 24.4677 34.7568 22.2145C31.7961 20.275 28.9482 18.0218 25.6492 15.6259Z" fill="#FF6854"></path></svg>