<svg xmlns="http://www.w3.org/2000/svg" width="79" height="75" viewBox="0 0 79 75" fill="none"><g opacity="0.2"><path fill-rule="evenodd" clip-rule="evenodd" d="M35.5298 27.449C28.1037 21.3446 22.0864 14.075 17.5646 5.60548C16.6603 3.91853 14.556 3.27504 12.8517 4.17938C11.1647 5.08373 10.5211 7.18812 11.4255 8.89247C16.3994 18.162 22.9734 26.1273 31.1125 32.8229C32.5908 34.0403 34.7994 33.8316 36.0168 32.3533C37.2342 30.8577 37.008 28.6664 35.5298 27.449Z" fill="white"></path><path fill-rule="evenodd" clip-rule="evenodd" d="M31.5695 3.67511C31.9521 10.7012 32.3 17.7273 32.7348 24.7534C32.8565 26.6664 34.5087 28.1273 36.4218 28.0055C38.3348 27.8838 39.7957 26.2316 39.6739 24.3186C39.2391 17.3099 38.8912 10.3012 38.5086 3.27515C38.4043 1.36732 36.7521 -0.102252 34.8391 0.00557433C32.926 0.1134 31.4478 1.75685 31.5695 3.67511Z" fill="white"></path><path fill-rule="evenodd" clip-rule="evenodd" d="M57.3886 5.10131C52.9364 11.8144 47.8932 18.0056 42.8149 24.2665C41.5975 25.7621 41.8235 27.9535 43.3191 29.1535C44.8148 30.3709 47.0062 30.1448 48.2062 28.6491C53.4236 22.2317 58.6062 15.8491 63.1975 8.94472C64.2583 7.34472 63.806 5.18827 62.206 4.1274C60.6234 3.06653 58.4495 3.50131 57.3886 5.10131Z" fill="white"></path><path fill-rule="evenodd" clip-rule="evenodd" d="M74.6349 30.0578C62.5654 30.5969 49.748 30.6143 37.6784 29.8491C35.7654 29.7447 34.1132 31.1882 33.9915 33.1186C33.8697 35.0317 35.3306 36.6838 37.2436 36.8056C49.5567 37.5708 62.635 37.5534 74.9481 37.0143C76.8611 36.9273 78.3566 35.2926 78.2697 33.3796C78.1827 31.4665 76.548 29.9708 74.6349 30.0578Z" fill="white"></path><path fill-rule="evenodd" clip-rule="evenodd" d="M31.1031 32.2662C38.5466 41.3793 46.251 50.3185 53.1553 59.8489C54.2858 61.3967 56.4598 61.7445 58.025 60.614C59.5728 59.4836 59.9205 57.3096 58.7901 55.7618C51.7988 46.127 44.0076 37.0836 36.4771 27.8662C35.2598 26.3879 33.0683 26.1619 31.5901 27.3793C30.0944 28.5967 29.8857 30.788 31.1031 32.2662Z" fill="white"></path><path fill-rule="evenodd" clip-rule="evenodd" d="M33.3574 34.9105C35.3052 44.4062 35.8443 53.4845 35.9835 63.1019C36.0009 65.0149 37.5835 66.5453 39.4965 66.5279C41.427 66.4931 42.9574 64.9278 42.9226 62.9974C42.7834 52.9278 42.2096 43.4496 40.1748 33.5018C39.7748 31.6236 37.9487 30.4061 36.0531 30.8061C34.1748 31.1887 32.9574 33.0323 33.3574 34.9105Z" fill="white"></path><path fill-rule="evenodd" clip-rule="evenodd" d="M33.6714 34.1456C28.0366 45.4152 25.1322 57.937 19.0974 68.9631C18.1757 70.6326 18.8017 72.7543 20.4886 73.676C22.1756 74.5978 24.2801 73.9716 25.2018 72.3021C31.2714 61.2064 34.2104 48.6152 39.8974 37.2587C40.7495 35.5369 40.0539 33.45 38.3495 32.5804C36.6278 31.7282 34.5409 32.4239 33.6714 34.1456Z" fill="white"></path><path fill-rule="evenodd" clip-rule="evenodd" d="M36.7724 31.5882C25.5551 33.5708 14.355 34.4751 3.06809 35.8142C1.15505 36.0403 -0.201476 37.7621 0.0246112 39.6752C0.250698 41.5882 1.9726 42.9447 3.88564 42.7186C15.2943 41.3795 26.6334 40.4403 37.99 38.4403C39.8682 38.0925 41.1378 36.2838 40.8073 34.4055C40.4595 32.5099 38.6681 31.2403 36.7724 31.5882Z" fill="white"></path><path fill-rule="evenodd" clip-rule="evenodd" d="M44.5782 26.3022C42.2652 26.1978 40.0739 26.0413 37.813 25.7108C35.8999 25.4326 34.1434 26.7543 33.8651 28.65C33.5869 30.5456 34.9085 32.3196 36.8042 32.5978C39.3085 32.963 41.726 33.1369 44.2651 33.2413C46.1781 33.3283 47.8128 31.8499 47.8824 29.9195C47.9694 28.0065 46.4913 26.3891 44.5782 26.3022Z" fill="white"></path></g></svg>