<svg xmlns="http://www.w3.org/2000/svg" width="100" height="100" viewBox="0 0 100 100" fill="none"><path fill-rule="evenodd" clip-rule="evenodd" d="M94.6785 31.47C75.9099 66.3699 38.4175 80.5586 3.59528 60.9108C2.43603 60.2566 0.965988 60.6656 0.311743 61.8105C-0.342503 62.9759 0.0664445 64.4479 1.22569 65.1022C38.5504 86.1812 78.8049 71.154 98.9229 33.7598C99.5526 32.5944 99.1131 31.1222 97.9416 30.4884C96.7701 29.875 95.3082 30.3046 94.6785 31.47Z" fill="#FF6854"></path><path d="M32.8988 45.943C36.7758 45.943 39.9187 42.8002 39.9187 38.9232C39.9187 35.0462 36.7758 31.9033 32.8988 31.9033C29.0218 31.9033 25.8789 35.0462 25.8789 38.9232C25.8789 42.8002 29.0218 45.943 32.8988 45.943Z" fill="#FF6854"></path><path d="M61.9608 38.4755C65.762 38.4755 68.8436 35.3941 68.8436 31.5929C68.8436 27.7916 65.762 24.7102 61.9608 24.7102C58.1596 24.7102 55.0781 27.7916 55.0781 31.5929C55.0781 35.3941 58.1596 38.4755 61.9608 38.4755Z" fill="#FF6854"></path></svg>