<svg xmlns="http://www.w3.org/2000/svg" width="297" height="315" viewBox="0 0 297 315" fill="none"><g opacity="0.5"><path fill-rule="evenodd" clip-rule="evenodd" d="M179.332 98.9179C179.292 98.811 179.257 98.7013 179.224 98.5958C178.821 97.1489 178.449 95.0072 177.887 92.5348C176.512 86.4548 174.002 78.5089 167.545 73.4914C163.208 70.1197 157.09 68.0294 148.286 68.7552C144.204 69.0977 140.902 71.2775 138.317 74.3688C134.638 78.7593 132.429 84.9946 131.388 89.8882C130.973 91.8512 130.869 95.8446 130.566 98.565C100.609 48.8518 19.5088 60.7658 12.3011 121.847C12.2146 122.573 12.7361 123.228 13.4573 123.317C14.1798 123.399 14.8383 122.882 14.9247 122.157C21.9165 62.9369 101.379 52.0242 129.268 101.583C129.779 102.488 130.374 102.769 130.757 102.838C131.317 102.933 131.869 102.78 132.321 102.191C132.655 101.751 132.986 100.639 133.157 99.1574C133.47 96.5001 133.554 92.4189 133.973 90.4339C134.932 85.9127 136.938 80.1248 140.338 76.0675C142.468 73.5222 145.15 71.6689 148.504 71.388C156.457 70.7299 162.007 72.5326 165.929 75.5784C171.857 80.1866 174.046 87.5399 175.315 93.1189C175.987 96.0966 176.408 98.6059 176.916 100.059C177.257 101.032 177.711 101.644 178.148 101.936C178.374 102.084 178.893 102.327 179.59 102.001C180.267 101.681 182.816 99.497 183.279 99.181C195.956 90.5841 210.395 94.1343 220.827 104.508C238.306 121.894 236.622 140.318 225.413 149.967C215.612 158.405 198.8 160.011 181.599 148.587C181.094 148.174 180.586 147.758 180.083 147.338C178.379 145.923 173.873 142.328 173.192 141.9C172.244 141.301 171.532 141.975 171.431 142.081C171.193 142.342 170.898 142.794 171.18 143.482C171.205 143.548 171.382 143.869 171.905 144.345C174.61 146.8 177.333 148.919 180.045 150.728C182.693 152.897 185.354 155.038 187.901 157.332C198.346 166.749 208.417 176.926 214.985 189.499C222.484 203.84 226.892 225.655 223.395 243.06C221.682 251.584 218.073 259.042 211.903 263.949C205.741 268.858 197.046 271.17 185.255 269.553C184.533 269.452 183.869 269.96 183.767 270.683C183.666 271.406 184.175 272.07 184.897 272.171C197.582 273.908 206.916 271.295 213.548 266.015C220.182 260.739 224.14 252.748 225.981 243.58C229.594 225.607 225.067 203.083 217.326 188.275C210.834 175.855 201.036 165.705 190.753 156.351C205.279 161.986 218.673 159.255 227.134 151.968C239.288 141.508 241.636 121.483 222.687 102.633C211.336 91.3424 195.598 87.6378 181.796 96.9947C181.526 97.1813 180.223 98.2068 179.332 98.9179Z" fill="#3E53AC"></path></g></svg>