<svg xmlns="http://www.w3.org/2000/svg" width="35" height="37" fill="none" xmlns:v="https://vecta.io/nano"><path opacity=".5" fill-rule="evenodd" d="M4.243 16.531c1.637-.594 3.36-1.384 4.689-2.527 1.578-1.358 2.22-3.107 2.651-4.948l1.445-7.254c.248-.88.727-1.212.932-1.36.518-.373 1.043-.472 1.536-.435a2.23 2.23 0 0 1 1.915 1.266c.075.143.173.36.239.658.048.218.079.902.13 1.184l.333 2.085c.332 2.322.523 4.294 1.573 6.428 1.424 2.896 2.85 4.668 4.785 5.453 1.871.759 4.107.616 6.965.021l.807-.172c1.26-.224 2.465.618 2.712 1.897s-.553 2.522-1.802 2.803l-.772.165c-3.862.974-8.333 4.449-10.931 7.492-.801.938-1.973 3.561-3.169 5.235-.883 1.234-1.875 2.048-2.707 2.335a2.4 2.4 0 0 1-1.417.066c-.565-.142-1.033-.453-1.393-.949-.196-.271-.377-.635-.464-1.098-.041-.223-.046-.791-.045-1.047-.244-.854-.542-1.688-.759-2.549-.518-2.056-1.536-3.357-2.744-5.076-1.13-1.609-2.344-2.62-4.123-3.427-.231-.058-2.099-.523-2.759-.791C.905 21.593.446 20.937.28 20.583a2.73 2.73 0 0 1-.256-1.561c.084-.645.368-1.197.872-1.643.312-.277.779-.546 1.404-.677.483-.103 1.763-.162 1.943-.171zm10.958-3.351c.087.197.179.394.277.593 2.085 4.242 4.417 6.61 7.252 7.759l.095.037c-1.896 1.434-3.613 3.036-4.924 4.572-.54.633-1.255 1.946-2.028 3.294-.702-2.324-1.85-3.967-3.294-6.022-1.103-1.569-2.258-2.75-3.678-3.712 1.102-.576 2.153-1.251 3.069-2.038 1.524-1.312 2.532-2.832 3.232-4.483z" fill="#ff6854"/></svg>