<svg xmlns="http://www.w3.org/2000/svg" width="135" height="32" viewBox="0 0 135 32" fill="none"><path d="M6.83333 10.333H1.83333L1 21.1663C1.55556 21.9997 2.83333 23.833 3.5 24.4997C4.16667 25.1663 4.88889 26.4441 5.16667 26.9997L10.1667 30.333L15.1667 28.6663L20.1667 25.333L21.8333 18.6663V10.333H19.3333L11.8333 11.1663L6.83333 10.333Z" fill="#3E53AC"></path><path d="M1.83203 9.5V19.5C1.83203 25.0228 6.30918 29.5 11.832 29.5V29.5V29.5C17.3549 29.5 21.832 25.0228 21.832 19.5V9.5" stroke="#3E53AC" stroke-width="3.33333" stroke-linecap="round" stroke-linejoin="round"></path><path d="M21.832 1.99967C21.832 1.99967 15.7373 2.83301 11.832 2.83301C7.92679 2.83301 1.83203 1.99967 1.83203 1.99967" stroke="#BFACE3" stroke-width="3.33333" stroke-linecap="round" stroke-linejoin="round"></path><path d="M21.8359 10.3327C21.8359 10.3327 15.7412 11.166 11.8359 11.166C7.93069 11.166 1.83594 10.3327 1.83594 10.3327" stroke="#3E53AC" stroke-width="3.33333" stroke-linecap="round" stroke-linejoin="round"></path><path d="M54.464 6.48598H50.048L45.992 17.934L41.936 6.48598H37.52L36.152 23.334H39.152L40.232 9.46198L44.96 23.334H47.024L51.728 9.50998L52.832 23.334H55.832L54.464 6.48598ZM68.6244 15.534C68.6244 12.702 66.8004 11.142 63.4644 11.142C60.5604 11.142 58.5204 12.294 58.0404 14.79L60.7764 15.198C61.0404 13.854 61.9524 13.206 63.4404 13.206C64.7364 13.206 65.7684 13.782 65.7684 15.102C65.7684 15.63 65.3124 15.798 64.7364 15.942L62.4084 16.422C60.1524 16.878 57.9204 17.766 57.9204 20.334C57.9204 22.662 59.7924 23.574 61.7604 23.574C63.4404 23.574 65.0484 22.902 65.8644 21.51L65.9844 23.334H68.7924V23.07C68.6244 22.59 68.6244 21.87 68.6244 21.15V15.534ZM62.5764 21.582C61.4964 21.582 60.7764 21.054 60.7764 20.046C60.7764 18.894 61.6644 18.366 62.8644 18.15L65.9124 17.43C65.9124 20.142 64.3764 21.582 62.5764 21.582ZM74.4545 11.382H71.6225V23.334H74.4545V17.814C74.4545 14.886 75.7985 13.806 78.7025 13.806V11.142C76.7105 11.142 75.1745 11.982 74.4545 13.302V11.382ZM88.9466 18.006C88.9226 20.334 87.6026 21.27 86.0186 21.27C84.5306 21.27 83.4986 20.502 83.4986 18.774V11.382H80.6426V19.35C80.6426 22.014 82.1786 23.574 85.1306 23.574C86.7866 23.574 88.1066 22.926 88.9466 21.87V23.334H91.7786V11.382H88.9466V18.006ZM101.543 11.142C99.9114 11.142 98.6154 11.766 97.7754 12.822V11.382H94.9194V23.334H97.7754V16.23C97.9674 14.262 99.2154 13.422 100.679 13.422C102.143 13.422 103.199 14.238 103.199 15.966V23.334H106.031V15.39C106.031 12.726 104.495 11.142 101.543 11.142ZM114.812 23.574C117.716 23.574 119.972 21.99 120.572 19.254L117.956 18.99C117.524 20.502 116.372 21.318 114.788 21.318C112.7 21.318 111.332 19.686 111.332 17.358C111.332 15.03 112.7 13.398 114.788 13.398C116.372 13.398 117.524 14.19 117.956 15.726L120.572 15.462C119.972 12.726 117.788 11.142 114.812 11.142C111.068 11.142 108.476 13.686 108.476 17.358C108.476 21.03 111.068 23.574 114.812 23.574ZM128.018 19.95L124.754 11.382H121.658L126.53 22.854L123.77 29.166H126.866L134.378 11.382H131.282L128.018 19.95Z" fill="white"></path></svg>