<svg xmlns="http://www.w3.org/2000/svg" width="94" height="86" viewBox="0 0 94 86" fill="none"><path fill-rule="evenodd" clip-rule="evenodd" d="M86.3415 28.7568C83.9932 20.7989 82.7507 12.451 81.6065 4.35214C81.3659 2.6077 82.5562 0.969231 84.2619 0.821618C85.9672 0.549179 87.5465 1.77714 87.7854 3.39677C88.8876 11.2465 90.0631 19.3442 92.3227 26.9288C92.8124 28.545 91.8722 30.306 90.2214 30.8274C88.5719 31.3487 86.8324 30.373 86.3415 28.7568Z" fill="#BFACE3"></path><path fill-rule="evenodd" clip-rule="evenodd" d="M54.8848 53.3933C41.5943 40.7131 29.9709 26.3877 16.3318 13.9618C15.0587 12.8553 14.9646 10.8593 16.1224 9.5955C17.2814 8.33169 19.2568 8.18097 20.5315 9.41227C34.2093 21.8377 45.8702 36.1625 59.1994 48.8422C60.4442 50.0739 60.4883 52.0702 59.2968 53.3344C58.1049 54.4738 56.1296 54.625 54.8848 53.3933Z" fill="#BFACE3"></path><path fill-rule="evenodd" clip-rule="evenodd" d="M4.74683 78.1573C12.2604 78.4314 19.774 78.7048 27.2888 78.979C29.0087 78.956 30.3567 80.4367 30.2964 82.1852C30.2348 83.9337 28.7875 85.2006 27.0664 85.2236C19.5403 84.9496 12.0155 84.6763 4.49069 84.4023C2.76914 84.3005 1.42989 82.8201 1.50016 81.0715C1.5721 79.4477 3.02653 78.0554 4.74683 78.1573Z" fill="#BFACE3"></path></svg>