<svg xmlns="http://www.w3.org/2000/svg" width="157" height="93" viewBox="0 0 157 93" fill="none"><path fill-rule="evenodd" clip-rule="evenodd" d="M113.199 88.4748C127.217 88.8114 141.541 88.1382 154.944 92.9113C155.743 93.1928 156.622 92.7828 156.911 91.9873C157.193 91.1918 156.782 90.3167 155.983 90.0291C142.267 85.1459 127.616 85.7578 113.273 85.4151C112.425 85.3907 111.718 86.0638 111.7 86.9083C111.675 87.7527 112.351 88.4503 113.199 88.4748Z" fill="#3E53AC"></path><path fill-rule="evenodd" clip-rule="evenodd" d="M111.94 68.2094C116.309 64.2062 121.078 61.2071 126.842 59.7207C127.665 59.509 128.157 58.6737 127.948 57.8561C127.733 57.0386 126.891 56.5472 126.074 56.759C119.806 58.3745 114.613 61.6067 109.862 65.9569C109.236 66.5285 109.193 67.4972 109.77 68.1189C110.342 68.74 111.319 68.781 111.94 68.2094Z" fill="#3E53AC"></path><path fill-rule="evenodd" clip-rule="evenodd" d="M99.7846 24.5033C101.788 17.665 105.733 12.3155 111.78 8.45235C112.493 7.99646 112.702 7.0492 112.241 6.33875C111.786 5.6283 110.834 5.42145 110.121 5.87734C103.429 10.1547 99.0533 16.0746 96.8348 23.646C96.5951 24.4562 97.0684 25.3068 97.8795 25.543C98.6969 25.7798 99.5511 25.3135 99.7846 24.5033Z" fill="#3E53AC"></path><path fill-rule="evenodd" clip-rule="evenodd" d="M30.7418 15.2228C29.5496 16.6198 28.4803 18.1252 27.5708 19.7278C27.1652 20.4413 26.4524 21.9577 26.3417 23.2581C26.2188 24.6435 26.692 25.8123 27.9088 26.4279C29.525 27.2442 30.8155 27.1592 31.8111 26.6653C32.7697 26.1911 33.5194 25.2591 33.9926 24.0095C34.896 21.6212 34.7608 17.971 34.2876 15.888C35.5597 14.5809 36.9547 13.3955 38.448 12.3418C49.571 4.49376 65.8868 7.3876 78.4416 19.122C82.8355 23.2305 84.9495 31.8588 86.0495 41.1681C87.764 55.6629 86.7869 71.8522 86.6517 76.5953C86.621 77.7666 86.7316 78.4617 86.7931 78.6006C87.0819 79.2835 87.592 79.461 87.9484 79.5283C88.4646 79.6201 88.8763 79.5222 89.2081 79.3509C89.6567 79.1159 90.0255 78.7022 90.1976 78.0639C90.2898 77.7115 90.3143 77.2207 90.302 76.6975C90.2897 76.3346 90.216 75.9381 90.2897 75.678C90.769 74.0124 91.3467 72.3858 91.9121 70.7477C93.7987 65.2409 96.2384 60.0805 98.9485 54.9262C107.558 38.5484 115.885 21.2436 130.001 8.76567C130.634 8.20575 130.695 7.23768 130.13 6.60616C129.571 5.97465 128.6 5.91711 127.96 6.47764C113.562 19.2022 105.008 36.805 96.2261 53.5071C93.9216 57.8916 91.8076 62.2822 90.05 66.8748C90.2282 58.7508 90.1606 47.5053 88.6673 37.5552C87.34 28.7061 84.8142 20.8856 80.5433 16.8915C66.7901 4.03665 48.8519 1.24809 36.672 9.84574C35.3692 10.7661 34.1279 11.7782 32.9725 12.876C26.5999 1.41761 12.9573 -3.17497 0.900186 2.30549C0.125878 2.65613 -0.212108 3.56424 0.138174 4.33222C0.494602 5.1002 1.40407 5.43922 2.17838 5.08858C13.0433 0.150288 25.3647 4.55741 30.7418 15.2228ZM31.6328 19.059C31.1351 19.759 30.6742 20.4848 30.244 21.235C30.0166 21.6377 29.6233 22.4118 29.4574 23.1693C29.4205 23.3468 29.4144 23.6246 29.4144 23.7531C29.8384 23.9612 30.1702 24.0615 30.4406 23.9263C30.7786 23.7599 30.9507 23.3682 31.1167 22.9307C31.5345 21.8329 31.6697 20.3777 31.6328 19.059Z" fill="#3E53AC"></path></svg>