<svg xmlns="http://www.w3.org/2000/svg" width="160" height="40" viewBox="0 0 160 40" fill="none"><path fill-rule="evenodd" clip-rule="evenodd" d="M0 30.6119V1.1582H22.5827V7.97531H9.11058V12.2189H20.5294V19.036H9.11058V23.6662H23.2242V30.6119H0ZM43.1121 11.9617C42.8556 8.8746 40.9305 7.2029 38.1074 7.2029C34.7721 7.2029 32.847 10.0328 32.847 15.8203C32.847 19.9353 33.745 23.7948 38.364 23.7948C41.4436 23.7948 42.8547 21.6078 43.1113 18.7779H51.9644C51.1956 26.3666 46.0626 30.996 38.6205 30.996C29.2543 30.996 23.6081 24.9512 23.6081 15.4337C23.6081 5.91526 29.7674 0 37.7217 0C46.3183 0 51.0656 4.37301 51.8353 11.9617H43.1121ZM141.267 8.23164H146.527C151.403 8.23164 153.2 9.77561 153.2 15.8203C153.2 21.2229 150.89 23.5367 146.656 23.5367H141.267V8.23164ZM145.244 30.2253C154.226 30.2253 160 26.1094 160 15.3059C160 5.78838 154.483 1.54397 145.502 1.54397H133.311V30.2253H145.244ZM79.037 30.3538L68.9011 15.0488L78.3956 1.1582H69.6716L62.2295 11.9617V1.1582H53.7612V30.3538H62.2295V19.5504L69.9282 30.3538H79.037ZM79.551 30.4824V1.0296H102.133V7.84586H88.6616V12.0903H100.08V19.036H88.6616V23.5376H102.645V30.4824H79.551Z" fill="#343E61"></path><path fill-rule="evenodd" clip-rule="evenodd" d="M133.57 22.7662H126.385L124.332 25.596L120.098 19.037C126.386 19.037 129.721 14.5354 129.721 10.4196C129.721 3.98907 124.59 1.15918 117.79 1.15918H104.445V31.1272H113.427V19.6791L120.612 30.8701L114.068 40.0001H121.254L123.948 36.1424L126.385 40.0001H133.442L127.668 30.9969L133.57 22.7662ZM116.633 13.8916H113.426V6.43148H116.633C119.456 6.43148 122.791 6.94584 122.791 10.1615C122.791 13.5058 119.456 13.8916 116.633 13.8916Z" fill="#343E61"></path></svg>