<svg xmlns="http://www.w3.org/2000/svg" width="144" height="40" viewBox="0 0 144 40" fill="none"><path d="M3.39698 8.01844C1.82875 12.8159 -0.153557 23.1565 0.00943271 31.5913C-0.15576 35.5638 2.73621 36.0579 4.80001 35.7271L12.2337 33.5765C17.4383 31.5913 19.1718 23.6506 19.1718 20.8383C19.1718 18.0259 17.7687 15.0482 16.7776 14.0556C19.0903 12.1542 20.2466 8.3493 20.1651 6.19869C20.0836 4.04809 19.5858 1.23576 14.3834 1.65044C9.18092 2.06512 4.96741 3.71723 3.39698 8.01844Z" fill="#343E61"></path><path d="M20.8255 4.04883C21.4048 5.70314 22.4775 10.419 18.3477 14.8857C19.0921 16.2091 19.6692 17.2017 19.9996 18.1105C20.0833 17.8634 20.0833 17.1179 19.9181 16.54C21.0722 15.1327 24.2109 8.43165 20.8255 4.04883Z" fill="#343E61"></path><path d="M8.43537 10.0041C7.7746 11.9054 7.7746 12.8164 7.44421 14.7178L10.4992 14.056C11.8207 13.8068 12.5652 12.5672 12.5652 11.0783C12.5652 9.58939 12.4837 9.00928 10.9133 9.34014C9.34283 9.67321 8.43537 10.0041 8.43537 10.0041ZM6.36936 21.088C6.16232 22.4533 6.36936 25.2657 6.36936 25.9671L10.0036 25.2237C11.4485 24.8091 11.6555 23.2386 11.53 21.957C11.4088 20.6755 10.9133 19.8064 9.46617 20.177C8.76575 20.4262 6.78344 20.9225 6.36936 21.088Z" fill="white"></path><path d="M7.48438 22.5765V24.6455L9.71557 24.1889C10.6252 23.8999 10.7067 21.7074 9.42704 21.9964L7.48438 22.5765ZM9.22 11.5764C9.0548 12.1962 8.97331 13.0631 8.93146 13.4777L10.2134 13.1888C11.286 12.9815 11.5349 10.9963 10.46 11.3271L9.22 11.5764Z" fill="#343E61"></path><path d="M6.9877 4.7522C5.62652 5.94993 4.26313 8.18435 3.76755 10.5004C3.51866 11.3695 4.59351 11.9893 4.88205 10.9129C5.17279 9.83866 6.32914 7.19176 7.73217 5.66097C8.2696 4.99925 7.69032 4.214 6.9877 4.7522ZM12.3157 29.2757C12.8531 29.1941 13.5954 28.7794 13.8839 28.1177C14.1328 27.5398 15.3707 27.7471 14.9984 28.7794C14.6262 29.8117 13.9258 30.2683 12.6042 30.6808C11.6968 31.0139 11.4897 29.4831 12.3157 29.2757Z" fill="white"></path><path d="M1.82812 37.9611C2.65409 38.3758 4.4712 37.9611 5.29717 37.7141L12.5656 35.6451C15.4554 34.5709 18.1822 32.0056 19.5037 27.0426C19.8341 28.6153 20.246 29.1116 20.5764 29.6079C20.0808 33.082 17.6866 36.2252 14.4642 37.5486L6.28832 39.7831C3.72674 40.608 1.90962 38.8721 1.82812 37.9611ZM32.3887 12.7317C33.2147 10.9936 34.7851 11.2429 35.8578 11.2429C36.9304 11.2429 38.7475 11.5737 38.666 14.2206L38.5823 27.0404C38.5823 29.8528 34.4525 31.5887 32.7191 29.4403C32.2235 31.0946 28.9197 31.26 27.5981 31.26C26.2766 31.26 20.3297 30.2674 20.4949 22.823C20.6601 15.3808 26.9374 10.1686 32.3887 12.7317Z" fill="#343E61"></path><path d="M29.2501 23.9929C30.3462 23.9929 31.2346 22.8405 31.2346 21.4188C31.2346 19.9972 30.3462 18.8447 29.2501 18.8447C28.1541 18.8447 27.2656 19.9972 27.2656 21.4188C27.2656 22.8405 28.1541 23.9929 29.2501 23.9929Z" fill="white"></path><path d="M29.0012 23.104C29.388 23.104 29.7016 22.4236 29.7016 21.5842C29.7016 20.7449 29.388 20.0645 29.0012 20.0645C28.6144 20.0645 28.3008 20.7449 28.3008 21.5842C28.3008 22.4236 28.6144 23.104 29.0012 23.104Z" fill="#343E61"></path><path d="M26.9809 14.0163C25.5361 14.8435 24.4194 15.878 23.47 17.9051C22.9326 18.816 24.2564 19.9079 24.7079 18.816C25.2035 17.6161 26.3598 16.1691 27.7232 15.2582C28.4258 14.7177 27.8884 13.4781 26.9809 14.0163ZM32.0182 21.5445C31.8112 22.3717 31.8112 23.6135 30.1592 24.5642C29.4985 24.9348 30.0755 25.6384 30.82 25.184C31.5623 24.7274 32.5953 23.9003 32.8023 21.7916C32.8442 21.2115 32.1019 20.8806 32.0182 21.5445Z" fill="white"></path><path d="M22.3945 31.2632C23.1368 32.3374 29.7445 34.241 32.4713 31.3448C33.2135 32.419 37.7574 32.5845 38.9953 29.0288C39.9864 30.5177 41.6384 31.014 43.4555 30.9302L57.0013 30.0214C58.239 29.834 59.3662 29.2016 60.1721 28.2423C60.978 27.283 61.4074 26.0625 61.38 24.8092C63.1134 28.2833 68.318 30.1868 72.6945 29.7721C77.0732 29.3575 80.789 27.3745 83.0202 21.666C83.9276 25.6364 88.8834 30.1868 94.4999 30.5177C100.116 30.8486 103.751 28.3671 105.649 23.8188C105.568 27.8708 107.466 32.0904 112.094 31.6757C113.662 31.5919 115.479 30.9302 116.059 28.5325C116.473 30.9302 119.363 33.8263 123.409 32.419C122.006 34.3226 118.783 37.382 114.488 31.3448C113.167 33.9101 105.733 36.2262 104.495 26.7966C101.108 33.4977 88.6367 36.0607 82.5224 24.4806C77.9807 36.6409 63.3601 31.7595 61.7918 27.1275C61.6266 29.4435 60.3866 31.925 56.8361 32.172C53.2833 32.419 46.9245 32.7521 44.1162 32.8337C42.7947 33.1646 40.8961 32.0066 40.0701 30.9324C39.9864 32.9175 36.7663 34.8211 33.7928 33.4977C32.3898 35.5644 24.1302 35.6461 22.3945 31.2632Z" fill="#343E61"></path><path d="M45.2759 17.6132L40.6483 23.4033C39.492 24.8921 39.3268 29.0279 43.5381 28.7809C47.7516 28.5316 55.0157 28.0684 57.0839 27.9537C60.0573 27.7883 61.6278 20.8181 57.0002 20.3439L53.78 20.013L58.075 14.5538C59.3129 12.734 59.2314 9.59085 55.5971 9.75628C51.9629 9.92171 47.9146 10.5834 44.7759 10.5834C41.6373 10.5834 39.9039 12.487 39.8202 14.2229C39.7409 15.9588 40.8972 17.6132 45.2759 17.6132Z" fill="#343E61"></path><path d="M39.5731 23.1985C39.5731 21.8729 39.5312 18.6503 39.5312 18.1099C40.3154 18.9789 41.0576 19.4333 42.7933 19.7223L41.8836 20.673C41.0158 20.4656 40.6876 20.4237 40.4806 20.1348C40.5643 21.0038 40.5643 22.4508 40.5643 22.4508C40.2339 22.742 39.7801 22.9493 39.5731 23.1985ZM73.1072 9.50745C66.6647 8.34944 62.8652 11.8235 61.2133 16.5394C59.5614 21.2531 64.4335 27.4578 69.3892 28.2034C74.345 28.9467 80.88 27.5725 82.1928 21.5861C83.6817 14.8013 79.1378 10.9125 73.1072 9.50745Z" fill="#343E61"></path><path d="M43.9951 11.4514C43.0855 11.4514 41.9291 11.8661 41.6009 12.5256C41.2706 13.1873 41.1869 13.8909 41.3939 14.7181C41.6009 15.5453 43.004 15.2982 42.9203 14.5108C42.8388 13.7255 43.4181 12.691 44.3255 12.6094C45.233 12.5278 45.0678 11.3698 43.9951 11.4514ZM52.2129 18.7723L55.9705 14.0586C56.7128 13.2314 57.4154 13.8093 56.8383 14.5968L52.997 19.3524C52.42 19.9722 51.8407 19.3502 52.2129 18.7723Z" fill="white"></path><path d="M55.7617 19.6408L58.9004 16.0829C59.396 15.5867 60.1801 14.2632 60.0964 13.5596C60.5105 14.0978 60.7571 15.1301 59.4774 16.6609C59.6426 17.0755 59.6845 17.6115 59.1889 18.1916L57.7859 19.9695C57.0436 19.7224 55.7617 19.6408 55.7617 19.6408Z" fill="#343E61"></path><path d="M71.6221 21.3045C72.9127 21.3045 73.959 20.152 73.959 18.7304C73.959 17.3087 72.9127 16.1562 71.6221 16.1562C70.3314 16.1562 69.2852 17.3087 69.2852 18.7304C69.2852 20.152 70.3314 21.3045 71.6221 21.3045Z" fill="white"></path><path d="M70.629 19.9715C70.0916 19.3517 70.2986 17.49 71.2897 17.4481C72.2809 17.4062 72.5694 18.937 72.2391 20.095C71.9505 19.3914 70.7964 19.5987 70.629 19.9715Z" fill="#343E61"></path><path d="M64.149 14.0982C65.3054 12.2785 66.1314 11.4513 68.6511 10.6242C69.5189 10.2095 70.5916 11.5749 69.3537 12.0712C68.1159 12.5674 66.8758 13.3108 65.9265 15.007C65.4287 16.1672 63.4464 15.7128 64.149 14.0982ZM72.6972 22.0389C73.358 21.8316 74.4725 20.9228 74.7214 19.4759C74.8447 18.7303 75.9174 18.856 75.7125 19.8905C75.5077 20.925 74.8866 22.0411 73.5232 22.8683C72.6135 23.3205 71.8294 22.5352 72.6972 22.0389Z" fill="white"></path><path d="M99.1288 11.1615C94.5871 8.7638 87.8935 8.7638 84.5896 13.89C81.2858 19.0183 85.8275 25.3885 90.8692 27.4553C95.9064 29.5243 101.853 28.4479 104.25 23.8997C106.644 19.3492 104.001 14.1392 99.1288 11.1615Z" fill="#343E61"></path><path d="M94.2516 16.414C93.3442 16.5375 92.1041 17.0757 92.4764 19.1844C92.8464 21.2953 94.5424 21.5004 95.5732 21.2953C96.604 21.0902 97.2251 19.5175 96.7295 17.8631C96.2362 16.2088 94.8309 16.3721 94.2516 16.414ZM85.8687 14.7597C86.6946 13.3524 88.058 11.9473 89.3377 11.2437C90.0822 10.7055 92.0226 11.451 90.7826 12.609C89.5426 13.7671 89.0492 14.0163 87.7276 15.7522C86.8598 16.9941 85.2498 16.125 85.8687 14.7597ZM97.8881 19.9299C97.7229 20.799 97.3903 21.7078 95.9873 22.2041C95.1195 22.4114 95.5732 23.4856 96.4432 23.1966C97.311 22.9055 98.6722 21.9129 98.8792 20.2586C99.0026 19.4336 98.0951 19.1844 97.8881 19.9299Z" fill="white"></path><path d="M103.918 3.30495C104.744 6.44815 106.891 15.3814 107.387 25.2257C107.468 29.8578 111.516 30.5195 112.508 30.2725C113.497 30.0254 115.811 29.6923 115.728 24.6478C116.719 25.8874 117.545 27.4579 117.794 28.4527C118.043 29.4453 120.025 31.7613 122.668 31.1812C125.606 30.5371 124.877 25.9536 123.247 24.0677L120.686 20.6752C121.595 19.4356 122.835 16.9519 122.835 16.9519C123.743 15.1322 122.421 13.0632 120.439 12.236C118.457 11.4089 117.382 11.2434 116.309 12.7323L114.327 15.4608C113.75 10.6633 112.428 4.54238 111.023 2.31016C109.62 0.0779403 107.556 -0.17131 105.821 0.0779401C104.083 0.324984 103.836 1.89768 103.918 3.30495ZM102.638 1.93959C102.391 2.39398 102.473 3.92477 102.719 4.87545C102.966 5.82613 104.702 15.0484 104.744 15.752C104.083 14.8013 103.05 13.3941 103.05 13.3941C102.636 10.0038 101.975 6.7768 101.686 5.82613C101.4 4.87545 101.316 2.55941 102.638 1.93959Z" fill="#343E61"></path><path d="M106.439 1.02852C105.82 1.48291 105.201 2.5174 105.285 4.04819C105.366 5.57898 106.937 5.53707 106.979 4.54449C107.021 3.5519 107.267 2.93208 107.928 2.35197C108.587 1.77406 108.01 0.324887 106.439 1.02852ZM119.573 18.7297C119.987 17.7371 120.936 15.8754 120.936 15.8754C121.225 15.1321 122.63 15.4607 122.093 16.4952C121.608 17.373 121.085 18.229 120.525 19.0605C120.108 19.848 119.24 19.5568 119.573 18.7297Z" fill="white"></path><path d="M122.914 19.1836C122.584 19.7637 121.881 20.549 121.551 20.9636C122.007 21.5437 122.584 22.1636 122.954 22.6599C122.584 21.707 122.749 19.8475 122.914 19.1836ZM125.392 29.5242C125.227 30.4351 124.566 31.5931 123.987 32.0056C125.062 34.3217 130.099 37.6325 133.484 36.4723C134.064 37.6303 137.286 38.3736 138.854 35.8105C137.286 36.1392 135.469 35.312 135.304 34.818C134.147 35.4797 127.623 34.6525 125.392 29.5242Z" fill="#343E61"></path><path d="M124.074 21.6656C124.32 23.7346 127.459 34.8185 135.637 32.337C135.965 33.3296 137.617 33.9075 138.692 33.6604C139.767 33.4134 140.344 32.337 140.095 30.3518C139.849 28.3688 139.023 19.7642 137.866 17.4482C136.71 15.1321 134.728 13.8087 132.91 15.463C131.093 13.8087 128.12 13.3124 125.972 14.8013C123.825 16.2902 123.988 19.6826 124.074 21.6656Z" fill="#343E61"></path><path d="M131.508 20.8389C130.724 21.1301 130.556 22.4932 131.094 23.8586C131.629 25.224 132.497 25.7599 133.488 25.471C134.479 25.182 134.107 23.402 133.779 22.4513C133.446 21.5029 132.827 20.5919 131.508 20.8389ZM134.726 24.6041C134.726 25.224 134.81 26.093 133.858 26.3423C132.909 26.5893 133.444 27.6657 134.189 27.4165C134.931 27.1694 135.633 26.2584 135.468 24.6041C135.512 24.1078 134.77 23.9424 134.726 24.6041ZM127.46 15.0488C126.51 15.6289 125.643 16.2068 125.519 17.7795C125.394 19.35 126.88 20.3845 127.213 19.1846C127.543 17.9869 127.955 16.9524 128.781 16.6215C129.607 16.2907 129.112 14.3871 127.46 15.0488Z" fill="white"></path><path d="M132.207 22.8261C131.754 22.9078 132.126 25.0187 132.787 25.0187C133.447 25.0187 132.826 22.7004 132.207 22.8261ZM94.3166 18.2757C93.7175 18.5448 93.6558 19.3499 93.9443 20.0337C94.2329 20.7175 94.7857 21.1211 95.4112 20.8388C95.8253 20.6535 95.68 19.641 95.5544 19.1646C95.4311 18.6904 95.0787 18.0683 94.3166 18.2757ZM141.918 19.458C142.472 19.4568 143.002 19.2356 143.392 18.843C143.782 18.4505 144.001 17.9187 144 17.3647C143.999 16.8107 143.778 16.2799 143.386 15.889C142.994 15.4981 142.463 15.2791 141.91 15.2803C141.356 15.2814 140.826 15.5026 140.436 15.8952C140.046 16.2878 139.827 16.8195 139.828 17.3735C139.829 17.9275 140.05 18.4584 140.442 18.8493C140.834 19.2402 141.365 19.4591 141.918 19.458ZM141.918 19.1823C140.901 19.1823 140.156 18.3882 140.156 17.3625C140.156 16.3479 140.901 15.5538 141.918 15.5538C142.932 15.5538 143.669 16.3479 143.669 17.3625C143.669 18.3882 142.932 19.1823 141.918 19.1823ZM142.253 17.4574C142.667 17.4463 142.987 17.2743 142.987 16.8177C142.987 16.4317 142.777 16.2001 142.161 16.2001H141.143V18.5338H141.429V17.4574H141.951L142.619 18.5316H142.96L142.253 17.4574ZM141.427 17.2324V16.4052H142.095C142.381 16.4052 142.678 16.4493 142.678 16.8133C142.678 17.2875 142.194 17.2324 141.863 17.2324H141.427Z" fill="#343E61"></path></svg>