<svg xmlns="http://www.w3.org/2000/svg" width="37" height="40" viewBox="0 0 37 40" fill="none"><path fill-rule="evenodd" clip-rule="evenodd" d="M14.8443 7.88288C14.7371 7.24716 14.6564 6.61866 14.6043 5.99009C14.5257 5.04723 14.5743 4.09717 14.5464 3.15431C14.5343 2.75431 14.4864 1.71147 14.5057 1.56147C14.6807 0.254324 15.7357 0.0542992 16.0443 0.0185849C16.1936 -0.0028437 17.7264 -0.174196 18.0571 1.5258C18.4628 3.60438 18.5929 5.69721 18.4493 7.74721C18.7843 9.49006 19.3572 11.2257 20.1136 12.7972C23.1236 19.0472 28.8593 19.6543 35.0736 19.5972C36.0293 19.5829 36.8229 20.3329 36.8729 21.2829C36.9229 22.24 36.2115 23.0686 35.26 23.1543C31.7865 23.49 25.6236 26.2758 23.4928 29.1758C23.0471 29.7829 22.7879 31.2472 22.445 32.6829C21.9664 34.6758 21.3971 36.6472 20.7593 37.4758C20.6636 37.6043 19.5 38.9187 19.1528 39.1115C18.3186 39.5687 17.6507 39.3043 17.2714 39.0615C16.8922 38.8186 16.4629 38.34 16.2914 37.5472C16.1121 36.7186 16.2636 35.0186 16.2357 34.6543C16.1343 33.3329 15.87 30.74 15.3307 28.5115C15.04 27.3115 14.73 26.2043 14.2172 25.6543C12.3186 23.6186 9.28287 23.9186 6.72644 24.2543C6.43287 24.2901 6.1393 24.3329 5.84644 24.3687C4.80573 24.6758 3.7007 24.9043 2.53284 25.04C0.769271 25.2472 0.479291 23.6257 0.463576 23.5186C0.430719 23.2829 0.308564 22.0686 1.63785 21.5829C1.78285 21.5329 2.85286 21.2972 3.265 21.2043C3.83929 21.0758 4.41999 20.9758 5.00285 20.8829C11.0236 19.0115 14.2936 13.7543 14.8443 7.88288ZM16.9107 14.3758C19.1836 19.0758 22.6329 21.3472 26.7214 22.3758H26.7207C24.1679 23.7115 21.8457 25.3829 20.615 27.0615C20.1478 27.6972 19.7193 28.9758 19.3329 30.4115C19.1236 29.0758 18.8407 27.6543 18.4672 26.44C18.0422 25.0543 17.47 23.9044 16.8314 23.2187C15.5986 21.8972 14.0514 21.1615 12.3878 20.7972C14.3793 19.0329 15.8893 16.8329 16.9107 14.3758Z" fill="#3AC4E5"></path></svg>