<svg xmlns="http://www.w3.org/2000/svg" width="46" height="70" viewBox="0 0 46 70" fill="none"><path d="M25.0737 42.6614C25.5364 38.055 25.8063 33.6829 26.4233 29.3498C27.503 21.8741 30.2214 14.8864 33.4604 8.133C34.463 6.04451 35.8319 4.09265 37.22 2.21886C38.3768 0.657375 39.9192 -0.435644 42.0785 0.169433C44.1993 0.754992 44.9898 2.45309 45.3368 4.38543C46.108 8.73808 46.243 13.1298 45.5489 17.4824C44.5078 24.0797 43.2353 30.638 42.1942 37.2353C40.9795 44.9256 39.8999 52.6354 38.7431 60.3453C38.4732 62.1215 38.1262 63.8782 37.837 65.6544C37.3357 68.914 34.2124 71.2758 30.5492 69.2458C20.4851 63.6245 10.9802 57.2223 3.1911 48.5366C1.84151 47.0531 0.993158 45.0037 0.260524 43.0909C-0.49139 41.1585 0.453341 39.0115 2.20781 37.8989C4.02011 36.7473 6.00597 36.3374 8.14603 36.5521C13.2552 37.0596 17.8437 39.109 22.3167 41.4708C22.9336 41.7831 23.512 42.154 24.129 42.4467C24.3989 42.5638 24.6881 42.5834 25.0737 42.6614Z" fill="#FF6854"></path></svg>