<svg xmlns="http://www.w3.org/2000/svg" width="133" height="140" viewBox="0 0 133 140" fill="none"><path fill-rule="evenodd" clip-rule="evenodd" d="M91.7164 39.9545C95.1173 33.2196 99.2889 25.6721 104.392 19.4263C108.754 14.0883 113.789 9.69727 119.65 7.72391C120.476 7.44541 120.922 6.54855 120.643 5.72221C120.365 4.89583 119.468 4.45059 118.641 4.72866C112.248 6.88196 106.703 11.6037 101.945 17.4267C96.75 23.7845 92.4857 31.4521 89.0079 38.314C87.1518 37.7575 84.756 37.9533 81.7491 39.4284C77.1305 41.6938 72.6757 46.5109 68.7223 52.2744C62.988 60.6329 58.2562 70.9624 55.3909 77.7685C55.273 78.0472 55.1051 78.4696 54.911 78.997C54.548 78.8749 54.1758 78.7701 53.7952 78.6834C50.4839 77.923 46.693 78.5039 43.9823 80.1683C26.791 90.7253 16.0505 111.729 7.3037 128.828C6.90952 129.601 7.21799 130.554 7.99116 130.954C8.76864 131.35 9.71966 131.044 10.1182 130.266C18.619 113.646 28.929 93.1223 45.6384 82.8592C47.6953 81.5964 50.575 81.1862 53.0874 81.764C53.3687 81.8273 53.6413 81.9084 53.9123 81.9967C53.1001 84.7209 52.3461 88.1125 52.6261 90.5756C52.9106 93.1034 54.139 94.8086 56.5457 95.0807C58.6078 95.3083 59.9908 94.031 60.6904 92.0138C61.4485 89.8438 61.345 86.785 61.0812 85.5807C60.5913 83.3281 59.3723 81.6229 57.7429 80.4337C57.9735 79.8021 58.1739 79.3012 58.3021 78.9966C61.1052 72.3399 65.7216 62.2354 71.3283 54.0621C74.9356 48.8029 78.9266 44.3327 83.1408 42.2651C84.9384 41.3836 86.3911 41.0478 87.5567 41.217C86.9443 42.4552 86.3596 43.6544 85.8006 44.7999C84.6953 47.0655 82.1643 51.5686 81.3069 55.6714C80.6248 58.9339 81.0232 61.9478 83.2516 63.8692C84.3963 64.8566 85.7298 64.9039 87.0914 64.271C89.1256 63.3247 91.2768 60.4155 91.981 59.242C94.118 55.684 95.2034 49.2896 94.092 44.5911C93.6487 42.716 92.8558 41.1079 91.7164 39.9545ZM90.1659 43.0681C89.6367 44.1428 89.1291 45.185 88.641 46.1858C87.6095 48.3007 85.201 52.4869 84.4005 56.3179C83.9763 58.3464 83.9293 60.2813 85.3153 61.4761C85.4232 61.5689 85.5489 61.4933 85.6763 61.4418C85.8729 61.3614 86.0681 61.2418 86.2635 61.1025C87.5854 60.1596 88.8118 58.3817 89.272 57.6149C91.065 54.6295 91.9494 49.2606 91.0166 45.3181C90.8196 44.4853 90.5471 43.7142 90.1659 43.0681ZM56.6798 83.7102C56.2268 85.3179 55.8434 87.0855 55.7437 88.6682C55.6909 89.5086 55.718 90.2853 55.8984 90.9282C56.0453 91.4623 56.3212 91.8747 56.8994 91.9381C57.1325 91.9652 57.2774 91.8151 57.3979 91.6337C57.5252 91.4414 57.6254 91.2151 57.7085 90.9729C58.2627 89.3817 58.1876 87.1354 57.9921 86.2537C57.7699 85.2263 57.3045 84.3869 56.6798 83.7102Z" fill="#3E53AC"></path></svg>