<svg xmlns="http://www.w3.org/2000/svg" width="17" height="53" viewBox="0 0 17 53" fill="none"><path d="M0.000663836 21.4105C-0.0193362 17.7005 0.410667 14.0606 1.55067 10.5206C2.55067 7.41056 4.12066 4.61055 6.40066 2.27056C7.10066 1.55055 7.97066 0.940547 8.86066 0.480547C10.7207 -0.479453 12.7107 0.0505514 14.1207 1.61055C17.1407 4.95055 17.3307 8.90056 16.4707 12.9906C15.8307 16.0506 14.5707 18.9205 13.2007 21.7305C10.9307 26.4205 8.73067 31.1505 7.41067 36.2205C7.11067 37.3805 6.26066 38.1405 5.42066 38.8605C4.88066 39.3306 4.12067 39.3306 3.63067 38.7106C3.17067 38.1206 2.73066 37.4605 2.48066 36.7605C0.760659 31.8105 0.0306638 26.6605 0.000663836 21.4105Z" fill="#3AC4E5"></path><path d="M3.72104 44.3306C5.60104 44.3606 6.91104 45.3006 7.46104 46.6806C8.02104 48.0806 7.66103 49.8906 6.54103 50.8906C5.61103 51.7206 4.59104 52.2706 3.22104 52.0506C1.22104 51.7306 0.0110314 49.2706 0.701031 47.6106C0.891031 47.1406 1.04104 46.6506 1.27104 46.2006C1.88104 45.0406 2.81104 44.3406 3.72104 44.3306Z" fill="#3AC4E5"></path></svg>