<svg xmlns="http://www.w3.org/2000/svg" width="133" height="114" viewBox="0 0 133 114" fill="none"><path fill-rule="evenodd" clip-rule="evenodd" d="M53.0144 47.3524C53.0449 45.1456 53.3351 42.9198 53.9154 40.6788C55.9505 32.8144 65.0299 27.7655 74.6935 26.5784C84.3533 25.3913 94.3987 28.0927 98.2703 34.9336C100.485 38.8449 100.79 42.216 99.8853 45.0581C98.9842 47.885 96.8463 50.2287 93.9445 52.055C85.854 57.1419 71.6848 58.1806 65.2208 56.0538C62.2312 55.0684 59.3105 53.8814 56.466 52.5231C58.0925 61.4148 64.1518 69.8385 72.2386 77.4289C89.8133 93.9263 117.086 106.448 131.938 111.051C132.736 111.299 133.179 112.143 132.931 112.939C132.683 113.734 131.835 114.179 131.037 113.932C115.891 109.237 88.0874 96.4489 70.1653 79.6243C60.9064 70.9342 54.3087 61.1522 53.1824 50.868C32.2515 39.7239 15.0624 19.5055 0.366562 2.49061C-0.179428 1.86283 -0.106918 0.907804 0.526886 0.363725C1.16069 -0.176549 2.11534 -0.108093 2.66133 0.523495C16.7578 16.8421 33.1183 36.2539 53.0144 47.3524ZM56.0573 48.9694C55.9428 46.4887 56.1872 43.9699 56.8478 41.4284C58.6079 34.6217 66.6985 30.5963 75.0639 29.569C80.1916 28.9412 85.4644 29.4587 89.5994 31.3002C92.1995 32.4568 94.3416 34.1347 95.6321 36.4175C97.3273 39.4119 97.6939 41.9725 96.999 44.145C96.3041 46.3327 94.5781 48.0905 92.3293 49.502C84.9565 54.14 72.0552 55.1255 66.1715 53.1889C62.7009 52.0475 59.3332 50.6245 56.0573 48.9694Z" fill="#3AC4E5"></path></svg>