<svg xmlns="http://www.w3.org/2000/svg" width="154" height="171" viewBox="0 0 154 171" fill="none"><path d="M102.39 127.711C108.696 126.468 114.955 125.394 121.132 123.988C125.974 122.89 130.787 121.546 135.493 119.955C140.886 118.114 143.388 114.092 142.665 108.359C142.156 104.298 141.409 100.212 140.229 96.2935C137.302 86.6435 134.206 77.0234 130.909 67.4946C129.688 63.9993 127.835 60.6854 126.067 57.3951C123.559 52.7068 119.638 50.1207 114.2 50.491C104.647 51.1312 95.0271 51.4091 85.586 52.7814C70.5726 54.9778 55.6475 57.9138 40.7006 60.6265C37.2626 61.2389 33.8621 62.0441 30.4994 62.965C28.4787 63.5236 26.4874 64.3289 24.611 65.2503C19.0588 68.015 16.5454 72.7063 17.3129 78.7326C17.9984 84.2733 19.2078 89.7707 20.4791 95.2222C22.7503 105.061 26.2788 114.514 29.7148 123.997C30.443 125.988 30.9399 128.055 31.5061 130.099C32.8876 135.104 35.3542 137.474 40.5376 137.341C45.6208 137.216 50.7449 136.666 55.7025 135.608C59.488 134.805 62.628 135.161 65.9517 137.097C74.5487 142.15 83.2622 147.011 91.9526 151.88C93.2347 152.588 94.6949 153.135 96.1336 153.382C98.3108 153.771 99.7723 152.678 100.1 150.47C100.395 148.631 100.313 146.736 100.447 144.873C100.811 140.27 101.16 135.698 101.609 131.118C101.677 129.994 102.075 128.942 102.39 127.711ZM95.714 148.497C94.8459 148.115 94.1541 147.88 93.5246 147.523C84.3579 142.451 75.2219 137.395 66.0783 132.316C65.6407 132.074 65.0718 131.902 64.8429 131.516C63.5836 129.468 61.7569 129.758 59.8755 130.194C57.5699 130.744 55.3097 131.432 52.9667 131.789C49.0435 132.406 45.0741 133.039 41.1148 133.232C37.4328 133.412 36.2218 132.374 35.2172 128.833C33.5323 122.979 30.713 117.573 29.4527 111.528C28.0048 104.597 25.547 97.8686 23.8832 90.9825C22.8215 86.641 22.2533 82.1637 21.7234 77.7251C21.2886 74.2034 22.7065 71.2541 25.9189 69.6393C28.4518 68.375 31.1459 67.2117 33.9135 66.6649C48.3374 63.8415 62.776 61.1415 77.2525 58.5571C88.2911 56.5852 99.4259 55.2992 110.648 54.984C119.459 54.7402 120.587 55.5242 124.277 63.592C129.222 74.4006 132.509 85.7775 135.588 97.2226C136.524 100.709 137.274 104.255 137.894 107.793C138.594 111.971 137.288 114.243 133.361 115.631C130.189 116.745 126.965 117.698 123.673 118.442C116.756 120.013 109.787 121.422 102.833 122.878C100.435 123.38 98.8048 124.349 98.4659 127.15C97.9981 130.968 97.0224 134.72 96.5007 138.529C96.0515 141.776 95.9566 145.01 95.714 148.497Z" fill="#3AC4E5"></path><path d="M57.146 35.9516C58.0775 38.7984 58.9782 41.6296 59.9559 44.4612C60.282 45.3794 60.5992 46.5055 61.2893 47.0484C62.0483 47.6455 63.4012 48.0997 64.2268 47.8039C65.0293 47.5157 65.8062 46.2879 66.0116 45.3495C66.2166 44.4882 65.7142 43.4227 65.4269 42.4662C63.4917 35.9251 61.5489 29.361 59.5906 22.8275C59.4244 22.2413 59.2275 21.6396 58.9688 21.0837C58.0028 18.9144 56.5751 18.0748 54.9932 18.6436C53.5503 19.167 52.9341 20.5728 53.3535 22.716C53.7354 24.6664 54.1405 26.6092 54.7152 28.5222C55.4329 31.029 56.3126 33.4827 57.1305 35.9823C57.1229 35.9592 57.146 35.9516 57.146 35.9516Z" fill="#3AC4E5"></path><path d="M77.1508 42.0381C77.9953 42.5048 78.9837 43.4113 80.0075 43.4863C81.7626 43.6038 82.7247 42.3154 82.7265 40.5981C82.736 37.4947 82.6146 34.3829 82.5163 31.2635C82.4903 30.4009 82.4336 29.5227 82.2304 28.6668C81.7567 26.5926 80.584 25.5927 78.966 25.7378C77.3249 25.8904 76.2787 27.0782 76.3594 29.2041C76.5135 33.3557 76.8528 37.4467 77.1508 42.0381Z" fill="#3AC4E5"></path><path d="M98.6492 43.9211C99.4703 43.0631 100.197 42.5435 100.632 41.8374C102.179 39.2816 103.695 36.7102 105.111 34.069C105.554 33.232 105.83 32.194 105.804 31.2543C105.758 29.7832 104.942 28.3848 103.456 28.3073C102.44 28.2554 100.958 28.9711 100.414 29.8152C98.5878 32.7699 96.938 35.8719 95.5113 39.0291C95.0748 39.9662 95.2817 41.5383 95.8157 42.4653C96.2427 43.2224 97.62 43.4379 98.6492 43.9211Z" fill="#3AC4E5"></path><path d="M36.3702 41.443C38.0574 44.0937 39.7821 46.9372 41.6768 49.6737C42.7387 51.1967 44.339 51.4674 45.5371 50.6654C46.7583 49.8559 46.9124 48.4475 45.882 46.7861C44.2184 44.0508 42.5703 41.2848 40.7754 38.618C39.6679 36.9562 38.2524 36.7019 37.0228 37.6423C35.7468 38.5979 35.5936 39.8523 36.3702 41.443Z" fill="#3AC4E5"></path><path d="M30.894 54.2266C32.5751 53.8046 33.5469 52.1544 32.6056 51.0787C30.5165 48.6876 28.172 46.5337 25.7576 44.4797C25.3284 44.1076 23.7243 44.53 23.1743 45.12C22.6243 45.7099 22.2454 47.3711 22.5976 47.7427C24.8028 50.019 27.2404 52.0655 29.6548 54.1196C29.9615 54.3523 30.6247 54.1866 30.894 54.2266Z" fill="#3AC4E5"></path><path d="M82.0596 84.3278C88.3536 80.5966 94.2786 76.9752 100.32 73.5457C101.794 72.7212 103.585 72.1799 105.271 72.0397C109.674 71.6611 112.674 75.1791 111.681 79.4663C111.29 81.1318 110.606 82.8298 109.636 84.229C107.672 87.0969 105.516 89.8504 103.267 92.4965C98.4157 98.1604 93.4642 103.74 88.5126 109.32C87.1043 110.883 85.6653 112.462 84.0635 113.834C80.6144 116.779 76.9345 116.985 73.6293 113.93C71.0131 111.511 68.6564 108.69 66.7453 105.682C63.7237 100.978 61.5313 95.8542 60.0304 90.418C57.8143 82.3906 62.8437 76.9644 70.9636 78.9294C73.007 79.4186 74.9756 80.2933 76.852 81.2147C78.7284 82.1361 80.4525 83.3664 82.0596 84.3278Z" fill="#3AC4E5"></path></svg>