<svg xmlns="http://www.w3.org/2000/svg" width="220" height="40" viewBox="0 0 220 40" fill="none"><path d="M220 30.9703H190.27V29.9615H220V30.9703ZM205.186 25.321L208.007 22.5972L209.116 23.7069L206.093 26.2289C205.891 26.5316 205.689 27.036 205.488 27.3386H203.271C203.627 26.4453 204.313 25.723 205.186 25.321ZM195.712 8.17132C195.612 8.17132 193.394 8.7766 193.394 8.7766C192.877 8.98213 192.372 9.21793 191.883 9.48276C191.379 9.78541 190.875 10.2898 190.875 10.5925L192.891 11.0969C193.167 10.7695 193.47 10.4658 193.798 10.1889L194.301 9.98717L195.914 8.2722C196.015 8.17132 196.015 8.07044 195.662 8.17132H195.712ZM209.317 13.6189C208.091 12.2771 206.947 10.8622 205.891 9.38188C206.65 7.49598 206.927 5.45017 206.697 3.42994C206.286 2.68618 205.814 1.97762 205.286 1.31145C205.085 1.0088 204.178 0 203.775 0C203.674 0 203.573 -3.75809e-08 203.573 0.10088L203.674 1.21057C202.364 2.01761 200.852 3.02641 199.542 4.03522C199.516 4.4415 199.55 4.84938 199.643 5.24578C199.855 5.41746 200.093 5.55373 200.348 5.64931C201.245 5.43253 202.154 5.26415 203.069 5.1449L201.356 7.66692L199.34 9.07924L196.922 8.2722C196.72 8.2722 196.619 8.2722 196.519 8.37308L194.705 10.2898C194.643 10.3378 194.593 10.399 194.558 10.4688C194.523 10.5386 194.504 10.6153 194.503 10.6933L194.402 12.8118V13.518C194.369 14.349 194.617 15.1668 195.108 15.8382L196.216 14.1233C195.988 13.7474 195.818 13.3393 195.712 12.9127V11.0969L196.821 10.2898L199.844 12.4083C200.303 13.265 200.843 14.0757 201.457 14.8294C202.801 16.005 204.251 17.052 205.79 17.9567C205.919 18.7473 206.122 19.524 206.395 20.277L210.023 24.0096L207.907 26.7333C207.499 26.9485 207.154 27.2664 206.907 27.6556C206.66 28.0448 206.518 28.4919 206.496 28.9527H209.015L209.317 27.5404L212.341 24.2113C212.542 24.0096 212.542 23.9087 212.442 23.7069L211.635 20.8823C212.401 20.0105 212.861 18.9124 212.945 17.755C212.945 15.0312 210.224 14.325 209.317 13.5684V13.6189ZM213.852 18.0576C213.667 17.4014 213.431 16.7605 213.147 16.1409C213.147 16.1409 213.248 16.04 213.55 16.1409C213.852 16.2418 215.364 17.3514 215.364 17.3514C216.17 18.4611 216.674 23.3034 216.674 25.0184C215.791 24.6488 214.974 24.1377 214.256 23.5052L213.852 18.0576ZM136.656 16.9479C136.656 15.1321 136.051 13.7197 134.54 13.7197C133.028 13.7197 132.322 15.1321 132.322 16.9479V28.9527H134.137V30.8694H123.958V28.9527H125.873V12.4083H123.958V10.542H131.919V13.6693H132.02C132.468 12.6222 133.212 11.7296 134.162 11.102C135.111 10.4744 136.224 10.1394 137.361 10.1385C138.617 10.0631 139.855 10.4536 140.841 11.2354C141.826 12.0171 142.489 13.1351 142.703 14.3755C142.899 15.4744 143 16.5882 143.005 17.7045V29.0031H145.424V30.9199H136.555L136.656 16.8975V16.9479ZM95.4375 16.8975C95.4375 15.0816 94.8328 13.6693 93.3211 13.6693C91.8094 13.6693 91.104 15.0816 91.104 16.8975V28.9023H92.918V30.819H82.7393V28.9023H84.6541V12.4083H82.7393V10.542H90.7009V13.6693H90.8017C91.2493 12.6222 91.9939 11.7296 92.9433 11.102C93.8927 10.4744 95.0052 10.1394 96.1429 10.1385C97.398 10.0631 98.6369 10.4536 99.6223 11.2354C100.608 12.0171 101.271 13.1351 101.484 14.3755C101.68 15.4744 101.781 16.5882 101.787 17.7045V29.0031H104.205V30.9199H95.3367L95.4375 16.8975ZM154.191 12.3579V27.3891C154.176 27.5651 154.199 27.7425 154.26 27.9086C154.32 28.0747 154.416 28.2255 154.541 28.3505C154.666 28.4755 154.817 28.5716 154.983 28.6321C155.149 28.6926 155.326 28.7159 155.502 28.7005C155.912 28.6901 156.319 28.6222 156.711 28.4987V30.3146C155.498 30.9336 154.139 31.2125 152.781 31.1216C149.656 31.1216 147.742 29.6084 147.742 26.2794V12.4083H145.625V11.0969C148.044 9.18012 150.866 6.96075 153.083 5.1449H154.292V10.542H157.366V12.3579H154.191ZM27.1095 0C27.1095 0 32.0476 4.94314 34.2648 7.46516V9.38188C31.3995 6.75774 27.6672 5.28488 23.7838 5.24578C14.6129 5.24578 8.86853 12.2065 8.86853 20.7814C8.86853 29.3562 14.3106 36.2161 23.7838 36.2161C25.7606 36.2327 27.7198 35.8428 29.54 35.0706C31.3602 34.2984 33.0026 33.1603 34.3656 31.7269V33.5428C31.5438 37.4771 26.3033 39.9991 19.7526 39.9991C8.0623 40.1 0 31.626 0 20.8318C0.0183702 18.2594 0.544777 15.716 1.54893 13.348C2.55307 10.98 4.01514 8.83413 5.85098 7.03394C7.68681 5.23376 9.86018 3.81477 12.246 2.85864C14.6318 1.90251 17.183 1.42812 19.7526 1.46277C22.2538 1.47048 24.7375 1.87918 27.1095 2.67333V0ZM120.934 25.5228C120.394 26.1636 119.712 26.6701 118.942 27.0027C118.173 27.3353 117.337 27.4848 116.5 27.4395C114.686 27.4395 111.764 26.4307 111.663 21.6893H122.547C122.547 21.2858 122.648 20.5796 122.648 20.1761C122.648 14.4259 120.33 10.1889 114.182 10.1889C108.035 10.1889 104.911 14.9303 104.911 20.7814C104.911 26.6324 108.035 31.2729 114.182 31.2729C115.829 31.3611 117.465 30.9575 118.883 30.1133C120.3 29.2691 121.435 28.0225 122.144 26.5316L120.934 25.5228ZM111.562 19.6717C111.562 14.325 111.965 12.3074 113.779 12.3074C115.593 12.3074 115.996 14.2241 116.097 19.6717H111.562ZM21.7682 20.6805C21.7682 14.4259 22.3729 11.7021 24.4892 11.7021C26.6056 11.7021 27.2103 14.4259 27.2103 20.6805C27.2103 26.9351 26.6056 29.6589 24.4892 29.6589C22.3729 29.6589 21.7682 26.9351 21.7682 20.6805ZM14.2098 20.7814C14.2098 26.9351 17.9386 31.9791 24.4892 31.9791C31.0399 31.9791 34.7687 26.9351 34.7687 20.7814C34.7687 14.6277 31.0399 9.53321 24.4892 9.53321C17.9386 9.53321 14.2098 14.5772 14.2098 20.7309V20.7814ZM49.0793 16.8975C49.0793 15.0816 48.4746 13.6693 46.9629 13.6693C45.4512 13.6693 44.7458 15.0816 44.7458 16.8975V28.9023H46.5094V30.819H36.3811V28.9023H38.2959V12.4083H36.3811V10.542H44.3426V13.6693H44.4434C44.891 12.6222 45.6357 11.7296 46.5851 11.102C47.5345 10.4744 48.647 10.1394 49.7847 10.1385C51.0398 10.0631 52.2786 10.4536 53.2641 11.2354C54.2496 12.0171 54.9125 13.1351 55.126 14.3755C55.3221 15.4744 55.4232 16.5882 55.4283 17.7045V29.0031H57.847V30.9199H48.9785V16.9479L49.0793 16.8975ZM72.1576 5.09446C72.1576 6.91031 73.77 8.12088 76.088 8.12088C78.4059 8.12088 80.0183 6.91031 80.0183 5.09446C80.0183 3.27862 78.4059 2.06805 76.088 2.06805C73.77 2.06805 72.1576 3.3795 72.1576 5.09446ZM66.6148 12.3579V27.3891C66.5994 27.5651 66.6227 27.7425 66.6831 27.9086C66.7435 28.0747 66.8395 28.2255 66.9644 28.3505C67.0892 28.4755 67.2399 28.5716 67.4059 28.6321C67.5718 28.6926 67.749 28.7159 67.9249 28.7005C68.3354 28.6901 68.7425 28.6222 69.1342 28.4987V30.3146C67.9208 30.9336 66.5627 31.2125 65.2039 31.1216C62.0797 31.1216 60.1649 29.6084 60.1649 26.2794V12.4083H58.0486V11.0969C60.4673 9.18012 63.2891 6.96075 65.5062 5.1449H66.6651V10.542H69.1846V12.3579H66.6148ZM185.534 29.0031H188.053V30.9199H179.084V4.94314H176.867V3.02641H185.584V29.0536L185.534 29.0031ZM168.301 20.8318C167.902 20.5161 167.395 20.371 166.89 20.4283C164.975 20.4283 164.572 22.345 164.572 24.2618C164.572 26.1785 165.176 27.6917 166.789 27.6917C167.071 27.719 167.355 27.6782 167.618 27.5729C167.881 27.4676 168.115 27.3008 168.301 27.0864V20.8318ZM168.502 28.4987C167.924 29.3845 167.131 30.1085 166.196 30.6027C165.262 31.0968 164.217 31.3449 163.161 31.3234C159.835 31.3234 157.82 28.4987 157.82 25.0688C157.82 21.0336 160.742 18.4107 165.378 18.4107C166.368 18.3754 167.357 18.5119 168.301 18.8142V17.5028C168.343 17.0018 168.277 16.4974 168.104 16.025C167.932 15.5526 167.659 15.1236 167.304 14.7681C166.948 14.4125 166.52 14.1389 166.048 13.9666C165.576 13.7942 165.072 13.7272 164.572 13.7702C163.662 13.772 162.765 13.9929 161.959 14.4143C161.152 14.8357 160.458 15.4452 159.936 16.1913L158.827 14.779C159.674 13.3905 160.857 12.2376 162.266 11.4266C163.675 10.6157 165.265 10.1727 166.89 10.1385C171.828 10.1385 174.75 13.064 174.75 17.5028V29.0031H176.867V30.9199H168.603L168.502 28.4987ZM71.049 30.9199V29.0031H72.863V12.4083H71.049V10.542H79.3129V29.0031H81.2277V30.9199H71.049Z" fill="#343E61"></path></svg>