<svg xmlns="http://www.w3.org/2000/svg" width="133" height="40" viewBox="0 0 133 40" fill="none"><path fill-rule="evenodd" clip-rule="evenodd" d="M82.506 31.2818C74.806 36.9695 63.606 39.9998 53.946 39.9998C40.4127 39.9998 28.2793 35.0114 19.0393 26.713C18.3393 26.0603 18.946 25.1745 19.8327 25.6873C29.7727 31.4683 42.046 34.9182 54.7393 34.9182C63.2793 34.9182 72.706 33.1466 81.386 29.4636C82.6927 28.9508 83.766 30.3494 82.506 31.2818Z" fill="#343E61"></path><path fill-rule="evenodd" clip-rule="evenodd" d="M85.7273 27.5996C84.7473 26.3408 79.1941 26.9935 76.7208 27.3199C75.9742 27.4131 75.8342 26.7604 76.5342 26.2942C80.9674 23.1707 88.2006 24.1031 89.0406 25.1287C89.8806 26.1544 88.8073 33.4271 84.654 36.877C84.0007 37.3898 83.394 37.1101 83.674 36.4108C84.6073 34.0798 86.7073 28.9049 85.7273 27.5996Z" fill="#343E61"></path><path fill-rule="evenodd" clip-rule="evenodd" d="M76.86 4.38228V1.35198C76.86 0.885778 77.1867 0.606055 77.6067 0.606055H91.14C91.56 0.606055 91.9333 0.932398 91.9333 1.35198V3.91608C91.9333 4.33566 91.56 4.8951 90.9067 5.82751L83.9067 15.8042C86.52 15.7576 89.2733 16.1305 91.6067 17.4359C92.12 17.7156 92.26 18.1818 92.3067 18.6014V21.8182C92.3067 22.2844 91.84 22.7972 91.3267 22.5175C87.1733 20.3263 81.62 20.0932 77.0467 22.5641C76.58 22.7972 76.0667 22.331 76.0667 21.8648V18.7879C76.0667 18.3217 76.0667 17.4825 76.58 16.7366L84.7 5.1282H77.6533C77.2333 5.1282 76.86 4.80186 76.86 4.38228ZM27.5333 23.1702H23.4267C23.0533 23.1235 22.7267 22.8438 22.68 22.4709V1.3986C22.68 0.979021 23.0533 0.652678 23.4733 0.652678H27.3C27.72 0.652678 28 0.979018 28.0467 1.35198V4.10256H28.14C29.12 1.44522 31.0333 0.186477 33.5533 0.186477C36.12 0.186477 37.7533 1.44522 38.8733 4.10256C39.8533 1.44522 42.14 0.186477 44.5667 0.186477C46.2933 0.186477 48.16 0.885778 49.3267 2.51748C50.6333 4.28904 50.3533 6.85315 50.3533 9.13753V22.4709C50.3533 22.8904 49.98 23.2168 49.56 23.2168H45.5C45.08 23.1702 44.7533 22.8438 44.7533 22.4709V11.282C44.7533 10.3963 44.8467 8.1585 44.66 7.31934C44.3333 5.92074 43.4467 5.50116 42.2333 5.50116C41.2533 5.50116 40.18 6.15385 39.76 7.22611C39.34 8.29837 39.3867 10.0699 39.3867 11.282V22.4709C39.3867 22.8904 39.0133 23.2168 38.5933 23.2168H34.4867C34.0667 23.1702 33.74 22.8438 33.74 22.4709V11.282C33.74 8.95104 34.1133 5.45454 31.22 5.45454C28.28 5.45454 28.3733 8.81118 28.3733 11.282V22.4709C28.3267 22.8438 28 23.1702 27.5333 23.1702ZM103.6 0.186477C109.713 0.186477 113.027 5.40792 113.027 12.0746C113.027 18.5082 109.387 23.6364 103.6 23.6364C97.6267 23.6364 94.36 18.4149 94.36 11.8881C94.3133 5.31468 97.6267 0.186477 103.6 0.186477ZM103.6 4.52214C100.567 4.52214 100.38 8.67133 100.38 11.2354C100.38 13.7995 100.333 19.3007 103.553 19.3007C106.727 19.3007 106.913 14.8718 106.913 12.1678C106.913 10.3963 106.82 8.25175 106.307 6.57343C105.84 5.08159 104.907 4.52214 103.6 4.52214ZM120.913 23.1702H116.807C116.387 23.1235 116.06 22.7972 116.06 22.4242V1.30536C116.107 0.932395 116.433 0.606055 116.853 0.606055H120.68C121.053 0.606055 121.333 0.885784 121.427 1.21212V4.4289H121.52C122.687 1.53846 124.273 0.186477 127.12 0.186477C128.94 0.186477 130.76 0.839152 131.927 2.65733C133 4.33566 133 7.17948 133 9.23076V22.5175C132.953 22.8904 132.627 23.1702 132.207 23.1702H128.1C127.727 23.1235 127.4 22.8438 127.353 22.5175V11.0489C127.353 8.71794 127.633 5.3613 124.787 5.3613C123.807 5.3613 122.873 6.01399 122.407 7.03963C121.847 8.34499 121.753 9.60372 121.753 11.0489V22.4242C121.707 22.8438 121.333 23.1702 120.913 23.1702ZM66.08 13.1002C66.08 14.6853 66.1267 16.0373 65.3333 17.4825C64.68 18.648 63.6533 19.3473 62.4867 19.3473C60.9 19.3473 59.9667 18.1352 59.9667 16.3636C59.9667 12.8671 63.0933 12.2144 66.08 12.2144V13.1002ZM70.2333 23.1235C69.9533 23.3566 69.58 23.4033 69.2533 23.2168C67.9 22.0979 67.62 21.5385 66.8733 20.4662C64.6333 22.7506 63 23.4499 60.1067 23.4499C56.6533 23.4499 53.9467 21.3054 53.9467 17.0629C53.9467 13.7063 55.7667 11.4685 58.3333 10.3496C60.5733 9.37062 63.7 9.18415 66.08 8.90443V8.39161C66.08 7.41259 66.1733 6.24709 65.5667 5.40793C65.0533 4.66201 64.12 4.33566 63.28 4.33566C61.6933 4.33566 60.2933 5.12821 59.9667 6.80653C59.8733 7.17949 59.64 7.55244 59.2667 7.55244L55.3 7.13286C54.9733 7.03962 54.6 6.80653 54.6933 6.29371C55.6267 1.44522 59.9667 0 63.8867 0C65.8933 0 68.5067 0.512818 70.0933 2.05128C72.1 3.91608 71.9133 6.43357 71.9133 9.13753V15.5245C71.9133 17.4359 72.7067 18.2751 73.4533 19.3473C73.7333 19.7203 73.78 20.1865 73.4533 20.4196C72.5667 21.1189 71.0733 22.4242 70.2333 23.1235ZM12.18 13.1002C12.18 14.6853 12.2267 16.0373 11.4333 17.4825C10.78 18.648 9.75333 19.3473 8.58666 19.3473C7 19.3473 6.06667 18.1352 6.06667 16.3636C6.06667 12.8671 9.19334 12.2144 12.18 12.2144V13.1002ZM16.2867 23.1235C16.0067 23.3566 15.6333 23.4033 15.3067 23.2168C13.9533 22.0979 13.6733 21.5385 12.9267 20.4662C10.6867 22.7506 9.05333 23.4499 6.16 23.4499C2.70667 23.4499 0 21.3054 0 17.0629C0 13.7063 1.82 11.4685 4.38666 10.3496C6.62666 9.37062 9.75333 9.18415 12.1333 8.90443V8.39161C12.1333 7.41259 12.2267 6.24709 11.62 5.40793C11.1067 4.66201 10.1733 4.33566 9.33333 4.33566C7.74667 4.33566 6.34666 5.12821 6.02 6.80653C5.92666 7.17949 5.69333 7.55244 5.32 7.55244L1.35333 7.13286C1.02666 7.03962 0.653336 6.80653 0.74667 6.29371C1.68 1.44522 6.02 0 9.94 0C11.9467 0 14.56 0.512818 16.1467 2.05128C18.1533 3.91608 17.9667 6.43357 17.9667 9.13753V15.5245C17.9667 17.4359 18.76 18.2751 19.5067 19.3473C19.7867 19.7203 19.8333 20.1865 19.5067 20.4196C18.62 21.1189 17.1267 22.4242 16.2867 23.1235Z" fill="#343E61"></path></svg>