<svg xmlns="http://www.w3.org/2000/svg" width="90" height="40" viewBox="0 0 90 40" fill="none"><path fill-rule="evenodd" clip-rule="evenodd" d="M0 0L8.61866 38.0437C17.2715 33.0145 35.0976 31.251 45.0108 38.0679C54.9269 31.2655 72.7338 33.0174 81.3813 38.0437L90 0H0Z" fill="#343E61"></path><path fill-rule="evenodd" clip-rule="evenodd" d="M11.1797 9.26167V23.5598H21.1155V20.203H15.9316V9.26167H11.1797ZM36.2583 9.28492H41.5524L45.1233 18.8892L48.571 9.28492H53.8035L47.8326 23.5366H42.2913L36.2583 9.28492ZM55.1245 9.27136V23.5501H59.8711V9.27136H55.1245ZM29.1386 9.0247C24.7927 9.0247 21.7106 9.86257 21.7106 16.504C21.7106 21.966 23.0359 24.232 29.3233 24.232C36.0423 24.232 36.1659 21.0351 36.3507 19.5144H31.604C31.604 20.7249 30.4019 21.2522 29.1689 21.2522C28.799 21.2522 26.5491 21.5628 26.5491 17.9002H36.3502C36.4118 17.3724 36.3516 15.3536 36.3194 15.0449C35.9812 11.8179 35.6728 8.99368 29.1386 9.0247ZM72.4633 9.04117C76.3402 9.04117 78.8018 10.4964 79.1087 13.6546H74.1865C74.1865 12.9737 73.6944 11.7041 72.2781 11.7041C70.8633 11.7041 70.0936 12.1683 70.0936 13.2209C70.0936 14.3354 70.7402 14.6141 71.2323 14.7381C71.4786 14.8002 74.4323 15.2334 75.4161 15.3575C76.1487 15.4495 79.1698 15.6051 79.1087 18.7012C79.0466 21.7978 77.1392 23.7173 72.3402 23.7173C67.5397 23.7173 65.2633 22.0455 65.2633 19.321H70.1865C70.2163 20.2805 70.7397 20.9929 72.2781 20.9929C73.817 20.9929 74.6165 20.3135 74.6165 19.259C74.6165 18.4536 73.9089 18.0204 73.1397 17.9583C72.6341 17.9176 69.4173 17.8963 67.8788 17.2149C66.5068 16.6077 64.9352 15.672 65.2022 13.3134C65.5096 10.5895 67.4786 9.04117 72.4633 9.04117ZM65.0444 9.51027C65.0555 10.5967 64.9636 11.3106 63.5147 12.1179C63.6075 11.9071 63.8923 11.4656 63.8461 11.1691C63.6023 11.2632 63.3433 11.3112 63.0822 11.3106C61.9988 11.3106 61.1214 10.5047 61.1214 9.51075C61.1214 8.51683 61.9988 7.71094 63.0822 7.71094C64.167 7.71045 65.0444 8.51635 65.0444 9.51027Z" fill="white"></path><path fill-rule="evenodd" clip-rule="evenodd" d="M26.6406 14.8863H31.7298C31.7605 12.929 31.0202 11.873 29.1388 11.873C27.4425 11.873 26.6406 12.9605 26.6406 14.8863ZM78.2598 38.3992C78.1743 38.3109 78.0717 38.2411 77.9585 38.1942C77.8452 38.1473 77.7236 38.1242 77.6012 38.1263C77.3458 38.1263 77.1269 38.2174 76.9465 38.3992C76.8588 38.4847 76.7893 38.5875 76.7425 38.7011C76.6957 38.8147 76.6724 38.9367 76.6742 39.0597C76.6742 39.3199 76.7646 39.5414 76.9441 39.7241C77.1254 39.9077 77.3443 39.9998 77.6017 39.9998C77.859 39.9998 78.0789 39.9077 78.2603 39.7241C78.4416 39.5404 78.5316 39.319 78.5316 39.0597C78.5335 38.9367 78.5103 38.8147 78.4636 38.7011C78.4168 38.5875 78.3475 38.4847 78.2598 38.3992ZM78.1664 39.6339C78.0115 39.7919 77.8225 39.8709 77.6007 39.8709C77.3789 39.8709 77.1899 39.7919 77.034 39.6339C76.9591 39.5588 76.9 39.4693 76.8603 39.3706C76.8207 39.2719 76.8012 39.1661 76.8031 39.0597C76.8031 38.8368 76.8801 38.6468 77.036 38.4893C77.1918 38.3313 77.3799 38.2523 77.6007 38.2523C77.8215 38.2523 78.0106 38.3313 78.1664 38.4893C78.3223 38.6468 78.3993 38.8368 78.3993 39.0597C78.3998 39.2841 78.3223 39.4755 78.1664 39.6339Z" fill="#343E61"></path><path fill-rule="evenodd" clip-rule="evenodd" d="M78.0155 39.5582C78.0107 39.5495 78.0078 39.5316 78.0059 39.5049C78.004 39.4783 78.003 39.4526 78.003 39.4283V39.3532C78.0014 39.2956 77.9821 39.2399 77.9477 39.1938C77.9271 39.1655 77.9008 39.1419 77.8706 39.1245C77.8403 39.1071 77.8067 39.0964 77.7721 39.093C77.8242 39.0868 77.8745 39.0698 77.9198 39.0431C77.9866 38.9999 78.0203 38.9321 78.0203 38.8405C78.0203 38.7111 77.9679 38.6244 77.8625 38.5798C77.8034 38.5556 77.7105 38.543 77.5835 38.543H77.2266V39.5713H77.406V39.1657H77.5479C77.6436 39.1657 77.7105 39.1768 77.748 39.1986C77.813 39.2369 77.8447 39.3154 77.8447 39.4346V39.516L77.8486 39.549L77.8505 39.5601C77.8513 39.5636 77.8523 39.567 77.8534 39.5703H78.0218L78.0155 39.5582ZM77.7394 39.0159C77.6843 39.034 77.6264 39.0419 77.5686 39.0392H77.406V38.6665H77.559C77.6586 38.6665 77.7307 38.6791 77.7769 38.7048C77.8221 38.7305 77.8447 38.7804 77.8447 38.8555C77.8442 38.9345 77.8086 38.9883 77.7394 39.0159Z" fill="#343E61"></path></svg>