<svg xmlns="http://www.w3.org/2000/svg" width="2236" height="1327" fill="#fff" opacity=".05" xmlns:v="https://vecta.io/nano"><path d="M741.045 32.946c107.2-.424 133.215 26.609 122.538 63.727-10.678 37.032-67.794 63.132-127.453 73.471s-47.286 13.9-88.81-46.861c-41.524-60.845 28.219-90.083 93.725-90.337zM450.97 378.268c96.692-36.185 132.03-26.437 134.064 4.833s18.982 78.722-44.321 104.484c-63.302 25.847-85.082 21.952-125.589 20.511s-58.98-8.391-61.014-39.661 58.896-75.93 96.86-90.167zM109.966 662.587c82.624-26.779 75.676-22.288 84.151 3.05 8.474 25.253 39.15 38.811-2.797 77.878s-51.524 44.996-107.623 42.963-59.828-73.215-50.337-74.825c9.322-1.61 32.455-34.829 76.606-49.066zm136.775 188.972c45.083-38.982 79.066-28.39 119.403-23.813 40.422 4.576 6.015 6.44-1.866 52.964s15.594 22.372-51.183 44.998c-66.692 22.542-88.811 28.049-87.624-3.136 1.101-31.185 21.27-71.013 21.27-71.013zM90.392 1120.62c54.49-13.81 116.266-20.76 106.86 22.54-9.407 43.39 56.101 45.68 18.221 56.87-37.88 11.18-78.133 3.47-129.148 32.79-51.015 29.41-112.962-7.2-74.15-33.89 38.897-26.7 46.015-70.17 78.217-78.31zm450.321-199.23c76.692-26.27 138.469-32.458 130.927 4.66-7.542 37.202 26.185 53.981-21.355 74.15s-75.844 25.34-113.215 24.06c-37.372-1.35-73.897-28.469-35.085-65.671 38.728-37.202 10.678-27.623 38.728-37.199zm-29.828 307.95c80.675-45.42 121.18-71.27 126.011-33.31 4.915 37.97 42.459 39.16 28.816 69.92s-89.575 59.32-133.387 60.84c-43.812 1.53-92.2-57.62-21.44-97.45zm481.928-123.21c89.657-19.33 134.487-7.63 130.247 23.38-4.23 31.02 10.26 60.94-24.15 65.34-34.49 4.41-120.163 45-153.806 25.09-33.643-19.92 2.117-103.98 47.709-113.81zm7.033-196.692c24.914-35.931 83.474-65.251 118.554-85.843 35.09-20.593 125.76-26.866 92.54 31.352-33.3 58.134-14.57 58.811-62.2 82.115-47.71 23.135-173.299 7.629-148.894-27.624zM782.824 696.057c47.117-22.711 70.253-44.32 86.27-56.184 16.016-11.948 36.185-51.778-40.253-51.354-76.438.339-169.742-9.404-159.319 48.814 10.339 58.133 64.151 82.367 113.302 58.724zm135.418-294.735c39.66 29.321 74.233 18.302 121.518 4.32s115.08-61.437 87.46-81.097c-27.63-19.745-24.92-72.709-98.56-31.609-73.641 41.015-168.212 65.76-110.418 108.386zM1166.2 535.133c74.57-25.422 66.44-25.592 102.88 3.728s42.29 38.558-2.37 65.167c-44.66 26.694-138.73 38.898-178.81 25.001-40-13.983 10.42-70.761 78.3-93.896zm337.44 77.37c76.19-26.864 110.42-33.643 109.07 3.898-1.36 37.541 5.34 26.186-2.12 59.828s-76.02 31.185-132.12 29.151-43.04-68.81 25.17-92.877zm-85.42 379.391c93.98-28.388 148.81-58.643 124.66 4.49-24.07 63.136 73.47 51.016 1.78 85.926-71.69 34.92-282.28 75.77-204.4-7.28s31.27-69.07 77.96-83.136zm596.76 155.166c85.42-89.32 151.01-34.07 149.57 5.34-1.44 39.4-61.77 69.74-102.62 77.03-40.76 7.2-108.56-17.97-46.95-82.37zm-181.35-338.463c78.73-29.152 104.66-46.186 102.88 3.728s38.98 45.083-2.88 81.014c-41.87 35.931-94.91 36.948-147.03 8.644-52.03-28.219-4.49-74.319 47.03-93.386zm100.08-354.311c36.95-43.643 19.66-25.254 128.73-21.356 109.06 3.899 71.6-30.255 39.49 56.775-32.12 87.031-20.68 51.865-71.19 55.34-50.51 3.559-149.14-29.151-97.03-90.759zm-335.49-137.79c101.94-49.405 106.77-11.777 105.25 31.865-1.53 43.642 7.12 62.709-40.34 79.657s-169.23 19.406-167.79-21.355c1.53-40.761 102.88-90.167 102.88-90.167zm-282.53-228.64c71.35-17.796 180.5-68.384 148.46 5.342-32.03 73.726-36.61 95.417-75.16 94.061-38.65-1.356-117.96 45.68-147.54-5.251-29.49-51.015-5.93-74.152 74.24-94.152zm457.18-21.863c75.17-29.152 86.69-67.792 139.66-65.928 52.96 1.864 38.55 55.844 37.96 72.284s-7.88 82.37-90.93 72.879c-82.96-9.661-143.64-57.202-86.69-79.235zm393.12 90.172c69.07-31.609 78.81-22.457 63.98 42.541s-37.79 54.827-88.81 62.369c-51.01 7.458-127.45-35.082 24.83-104.91z"/></svg>