<svg xmlns="http://www.w3.org/2000/svg" width="77" height="95" fill="#ff6854" xmlns:v="https://vecta.io/nano"><path d="M30.868 79.568L18.12 81.106c-3.322.311-6.677.458-10.015.425-3.829-.049-6.268-2.095-7.004-5.908-.524-2.7-.9-5.466-.966-8.215-.147-6.775-.18-13.567-.065-20.342.049-2.487.54-4.991.982-7.462.622-3.518 2.586-5.989 6.137-6.89 6.235-1.587 12.437-3.42 18.754-4.517 10.048-1.735 20.194-2.978 30.308-4.369 2.324-.327 4.664-.524 7.004-.638 1.407-.065 2.847.033 4.239.229 4.124.605 6.71 3.077 7.479 7.086.72 3.682 1.097 7.446 1.424 11.194.606 6.759.327 13.534.115 20.309-.049 1.424.066 2.848.131 4.271.164 3.486-.916 5.515-4.255 6.513-3.273.982-6.661 1.702-10.048 2.062-2.586.278-4.517 1.162-6.235 3.093l-13.52 14.876c-.671.72-1.489 1.375-2.356 1.833-1.309.704-2.471.311-3.142-1.031-.573-1.113-.916-2.34-1.391-3.502l-3.617-8.543c-.278-.704-.753-1.293-1.211-2.013zm8.608 11.881c.475-.425.867-.72 1.195-1.08L55.023 74.92c.229-.246.556-.475.622-.769.376-1.571 1.604-1.767 2.897-1.882 1.587-.131 3.175-.164 4.746-.426 2.635-.425 5.302-.851 7.872-1.555 2.389-.655 2.946-1.571 2.847-4.042-.147-4.091.524-8.133.066-12.257-.524-4.73-.36-9.541-.737-14.287-.229-2.995-.802-5.973-1.391-8.919-.458-2.34-1.98-3.928-4.37-4.288-1.882-.278-3.846-.458-5.728-.229l-29.375 3.878c-7.462 1.047-14.843 2.553-22.076 4.697-5.679 1.686-6.235 2.422-6.906 8.346-.9 7.937-.622 15.89-.196 23.844.131 2.422.393 4.844.736 7.233.425 2.815 1.735 3.993 4.533 4.058 2.258.049 4.517-.016 6.775-.229l14.237-1.522c1.637-.18 2.88.098 3.682 1.817 1.096 2.34 2.504 4.533 3.633 6.857.965 1.98 1.702 4.026 2.586 6.202zm1.111-79.943l-.016 6.022c-.016.655.016 1.44-.311 1.931-.36.54-1.129 1.113-1.718 1.096-.573-.016-1.326-.638-1.653-1.195-.311-.507-.213-1.293-.229-1.964l-.376-13.763c-.016-.409-.016-.835.033-1.244.164-1.587.9-2.422 2.029-2.389 1.031.033 1.718.802 1.898 2.258l.344 3.993.016 5.27c0-.016-.016-.016-.016-.016zm-11.502 8.068c-.442.475-.884 1.26-1.522 1.522-1.097.442-1.98-.18-2.34-1.276l-1.816-6.006c-.164-.556-.311-1.129-.36-1.718-.131-1.424.409-2.307 1.473-2.553 1.08-.245 1.996.295 2.389 1.669l2.177 8.363zm-13.339 5.695c-.704-.376-1.277-.556-1.702-.916L9.56 20.326c-.458-.442-.851-1.047-1.031-1.653-.278-.949-.049-2.013.884-2.373.638-.245 1.735-.098 2.258.327a54.57 54.57 0 0 1 5.057 4.86c.475.507.671 1.555.524 2.258-.115.573-.949.998-1.506 1.522zm39.263-14.598l-1.669 6.366c-.36 1.195-1.326 1.702-2.258 1.44-.949-.262-1.342-1.129-1.031-2.406l1.555-6.284c.36-1.293 1.211-1.751 2.193-1.407 1.015.344 1.375 1.113 1.211 2.291zm6.169 7.021c-1.162.082-2.128-.769-1.751-1.653.835-1.964 1.882-3.829 2.995-5.646.196-.327 1.309-.393 1.784-.131s1.064 1.244.916 1.555c-.933 1.915-2.062 3.731-3.175 5.548-.147.213-.605.245-.769.327zM33.846 47.919l9.41-10.703c.769-.835 1.8-1.555 2.847-1.997 2.733-1.162 5.384.458 5.646 3.404.098 1.146.016 2.373-.311 3.469-.655 2.242-1.456 4.451-2.34 6.611l-5.908 13.83-1.898 3.813c-1.587 2.602-3.895 3.502-6.644 2.242a28.25 28.25 0 0 1-6.12-3.829c-2.913-2.373-5.384-5.188-7.479-8.346-3.093-4.664-1.015-9.181 4.582-9.623 1.407-.114 2.848.033 4.239.229s2.749.622 3.977.9z"/></svg>