<svg xmlns="http://www.w3.org/2000/svg" width="354" height="28" fill="#3ac4e5" opacity=".3" fill-rule="evenodd" xmlns:v="https://vecta.io/nano"><path d="M350.428 21.563c-69.471-6.432-140.117-2.875-209.763-4.033L2.534 14.264A2.5 2.5 0 0 0 0 16.73a2.5 2.5 0 0 0 2.465 2.533l138.115 3.266c69.522 1.158 140.034-2.408 209.38 4.016a2.51 2.51 0 0 0 2.725-2.258c.125-1.375-.892-2.591-2.258-2.724z"/><path d="M351.174 7.393c-69.688-3.329-140.105 3.374-209.734 5.321L3.301 15.608A2.5 2.5 0 0 0 .88 18.185a2.5 2.5 0 0 0 2.576 2.421l138.124-2.893c69.503-1.942 139.787-8.647 209.35-5.32a2.51 2.51 0 0 0 2.622-2.377c.063-1.379-1.007-2.549-2.378-2.621z"/></svg>