<svg xmlns="http://www.w3.org/2000/svg" width="101" height="113" viewBox="0 0 101 113" fill="none"><path d="M67.2675 84.2185C71.4098 83.4018 75.5212 82.6961 79.5781 81.7727C82.7587 81.0518 85.9201 80.1689 89.0115 79.1237C92.554 77.9141 94.1974 75.2726 93.7226 71.5065C93.3883 68.8389 92.8973 66.1553 92.1225 63.5813C90.2 57.2426 88.1661 50.9235 86.0003 44.6643C85.1986 42.3684 83.9815 40.1917 82.8199 38.0303C81.1727 34.9508 78.5973 33.2521 75.0247 33.4953C68.75 33.9158 62.431 34.0983 56.2295 34.9998C46.3677 36.4425 36.5639 38.3711 26.7458 40.1529C24.4875 40.5552 22.2539 41.0841 20.045 41.689C18.7177 42.056 17.4097 42.5849 16.1772 43.1902C12.5301 45.0062 10.8792 48.0877 11.3833 52.0462C11.8336 55.6857 12.628 59.2967 13.4631 62.8776C14.9549 69.3404 17.2727 75.5498 19.5297 81.7791C20.008 83.0868 20.3344 84.4443 20.7063 85.7868C21.6138 89.0747 23.234 90.6316 26.6388 90.5442C29.9778 90.4615 33.3436 90.1008 36.6 89.4056C39.0866 88.8781 41.1492 89.1121 43.3324 90.3837C48.9795 93.703 54.7031 96.8962 60.4115 100.094C61.2536 100.559 62.2128 100.919 63.1578 101.081C64.5879 101.337 65.5479 100.618 65.7633 99.1679C65.9572 97.96 65.9034 96.7154 65.9911 95.4917C66.2304 92.4681 66.4595 89.4647 66.7543 86.4566C66.7989 85.7183 67.0607 85.0267 67.2675 84.2185ZM62.8822 97.8722C62.3119 97.6212 61.8575 97.4669 61.4441 97.2319C55.4228 93.9005 49.4216 90.5793 43.4156 87.2429C43.1281 87.0845 42.7544 86.9711 42.6041 86.7174C41.7769 85.3723 40.577 85.563 39.3411 85.8495C37.8267 86.2104 36.3421 86.6625 34.803 86.8968C32.226 87.3023 29.6187 87.7179 27.0179 87.8451C24.5994 87.9632 23.8039 87.281 23.144 84.9555C22.0373 81.1101 20.1853 77.559 19.3575 73.5886C18.4065 69.0358 16.792 64.6159 15.6991 60.0927C15.0017 57.241 14.6285 54.3 14.2804 51.3844C13.9948 49.0711 14.9261 47.1339 17.0363 46.0732C18.7001 45.2427 20.4697 44.4785 22.2876 44.1193C31.7622 42.2648 41.2464 40.4912 50.7555 38.7937C58.0063 37.4984 65.3204 36.6537 72.6916 36.4466C78.4793 36.2864 79.2201 36.8015 81.6441 42.1009C84.8927 49.2007 87.0517 56.6738 89.0739 64.1916C89.6885 66.4814 90.1814 68.8111 90.5884 71.1351C91.0487 73.8793 90.1906 75.3719 87.6109 76.2833C85.5278 77.0153 83.4099 77.6409 81.2473 78.1298C76.7042 79.1618 72.1262 80.0874 67.5583 81.0435C65.9833 81.3737 64.9124 82.0101 64.6898 83.8502C64.3825 86.3574 63.7416 88.8224 63.399 91.3244C63.1039 93.4574 63.0415 95.5816 62.8822 97.8722Z" fill="#3E53AC"></path><path d="M37.5483 23.945C38.1602 25.8149 38.7518 27.6746 39.394 29.5346C39.6082 30.1377 39.8166 30.8774 40.2699 31.234C40.7685 31.6263 41.6571 31.9246 42.1994 31.7303C42.7266 31.541 43.2369 30.7345 43.3718 30.1181C43.5064 29.5523 43.1765 28.8525 42.9877 28.2242C41.7166 23.9276 40.4404 19.6158 39.1541 15.3242C39.0449 14.9392 38.9156 14.5439 38.7456 14.1788C38.1111 12.7538 37.1733 12.2023 36.1342 12.576C35.1864 12.9197 34.7817 13.8432 35.0572 15.2509C35.308 16.5321 35.5741 17.8083 35.9516 19.0649C36.423 20.7115 37.0009 22.3232 37.5381 23.9651C37.5331 23.9499 37.5483 23.945 37.5483 23.945Z" fill="#3E53AC"></path><path d="M50.6889 27.9428C51.2436 28.2494 51.8928 28.8448 52.5653 28.8941C53.7182 28.9713 54.3502 28.1249 54.3513 26.9969C54.3576 24.9584 54.2778 22.9144 54.2133 20.8654C54.1962 20.2987 54.1589 19.7219 54.0255 19.1597C53.7143 17.7972 52.944 17.1404 51.8813 17.2357C50.8033 17.336 50.116 18.1162 50.169 19.5126C50.2703 22.2396 50.4931 24.9269 50.6889 27.9428Z" fill="#3E53AC"></path><path d="M64.8102 29.1796C65.3496 28.6161 65.8269 28.2748 66.1128 27.811C67.1287 26.1322 68.1244 24.4431 69.0547 22.7082C69.346 22.1584 69.5269 21.4765 69.51 20.8593C69.48 19.893 68.9438 18.9744 67.9678 18.9235C67.3003 18.8894 66.3265 19.3596 65.9693 19.914C64.7699 21.8549 63.6862 23.8925 62.749 25.9663C62.4623 26.5818 62.5983 27.6145 62.949 28.2234C63.2295 28.7207 64.1342 28.8623 64.8102 29.1796Z" fill="#3E53AC"></path><path d="M23.9012 27.5519C25.0094 29.293 26.1423 31.1608 27.3868 32.9584C28.0844 33.9587 29.1356 34.1365 29.9225 33.6098C30.7247 33.078 30.826 32.1529 30.1491 31.0616C29.0563 29.2648 27.9738 27.4479 26.7947 25.6963C26.0673 24.6047 25.1375 24.4377 24.3298 25.0554C23.4917 25.683 23.391 26.507 23.9012 27.5519Z" fill="#3E53AC"></path><path d="M20.3031 35.9491C21.4074 35.6719 22.0457 34.5879 21.4274 33.8813C20.0552 32.3107 18.5151 30.8959 16.9292 29.5466C16.6473 29.3023 15.5936 29.5797 15.2323 29.9672C14.871 30.3547 14.6222 31.446 14.8535 31.6901C16.3021 33.1852 17.9032 34.5295 19.4891 35.8788C19.6906 36.0317 20.1262 35.9228 20.3031 35.9491Z" fill="#3E53AC"></path><path d="M53.9128 55.7215C58.0471 53.2705 61.939 50.8918 65.9075 48.639C66.8757 48.0975 68.0524 47.7419 69.1597 47.6498C72.0517 47.4011 74.0221 49.712 73.37 52.5281C73.113 53.6221 72.6639 54.7375 72.0266 55.6566C70.737 57.5404 69.3205 59.349 67.843 61.0872C64.6566 64.8076 61.4041 68.4727 58.1516 72.1378C57.2265 73.1647 56.2813 74.2019 55.2291 75.103C52.9635 77.0378 50.5463 77.1726 48.3753 75.1663C46.6567 73.5774 45.1087 71.7244 43.8534 69.7485C41.8686 66.6587 40.4285 63.2927 39.4426 59.7219C37.9869 54.4489 41.2906 50.8847 46.6242 52.1754C47.9665 52.4968 49.2596 53.0713 50.4921 53.6766C51.7246 54.2818 52.8571 55.0899 53.9128 55.7215Z" fill="#3E53AC"></path></svg>