<svg xmlns="http://www.w3.org/2000/svg" width="25" height="25" viewBox="0 0 25 25" fill="none"><path opacity="0.5" fill-rule="evenodd" clip-rule="evenodd" d="M3.03085 11.1699C4.20039 10.7684 5.43113 10.2348 6.38021 9.46227C7.50741 8.54471 7.96583 7.36297 8.27368 6.11904C8.66891 4.52091 8.82683 2.81851 9.30608 1.21779C9.48352 0.623346 9.82501 0.398645 9.97154 0.298924C10.3419 0.0470308 10.7163 -0.0203001 11.0685 0.00495395C11.4859 0.0340933 12.0592 0.186255 12.4363 0.860345C12.4901 0.956828 12.56 1.10383 12.607 1.30521C12.6413 1.45285 12.6635 1.91454 12.6998 2.10492C12.7905 2.57374 12.8665 3.04257 12.9377 3.51398C13.175 5.08297 13.3115 6.41559 14.0609 7.85702C15.0779 9.81389 16.0969 11.0112 17.4788 11.5415C18.8151 12.0544 20.4128 11.9579 22.4541 11.5558C22.6484 11.5105 22.8406 11.4716 23.0308 11.4399C23.9308 11.2884 24.7912 11.8575 24.968 12.7214C25.1447 13.5845 24.5727 14.4257 23.6808 14.6154C23.4946 14.6549 23.3111 14.6925 23.1296 14.7268C20.3711 15.3847 17.1777 17.7327 15.3219 19.7886C14.7499 20.4226 13.9124 22.1949 13.0581 23.3255C12.4276 24.1595 11.7191 24.7093 11.1243 24.9035C10.7257 25.0343 10.3896 25.0143 10.112 24.9482C9.70872 24.8524 9.374 24.6419 9.11724 24.3071C8.97743 24.1239 8.84768 23.8785 8.78584 23.5651C8.75626 23.4142 8.75292 23.0309 8.75359 22.8573C8.5795 22.2804 8.36643 21.717 8.21116 21.1348C7.8408 19.7459 7.11419 18.8665 6.25115 17.7048C5.44389 16.6176 4.57684 15.9345 3.3058 15.3892C3.14045 15.3504 1.80622 15.0357 1.33504 14.855C0.646749 14.5902 0.318721 14.1466 0.19975 13.9076C-0.00256881 13.5023 -0.0233872 13.1481 0.016942 12.8528C0.0767637 12.417 0.279756 12.044 0.64003 11.7429C0.863185 11.5558 1.19658 11.3738 1.64289 11.2851C1.9877 11.2158 2.90246 11.1757 3.03085 11.1699ZM10.8581 8.90603C10.9199 9.03878 10.9858 9.17218 11.0557 9.30687C12.5452 12.1729 14.2108 13.773 16.2353 14.5494L16.3032 14.5746C14.9488 15.5433 13.7228 16.626 12.7858 17.664C12.4 18.0914 11.8892 18.9792 11.3373 19.8896C10.8359 18.3194 10.0159 17.2095 8.98481 15.8205C8.19704 14.7605 7.37164 13.9627 6.35736 13.3126C7.14445 12.9234 7.89524 12.4675 8.54925 11.9353C9.63814 11.0488 10.358 10.0217 10.8581 8.90603Z" fill="#FF6854"></path></svg>