<svg xmlns="http://www.w3.org/2000/svg" width="191" height="234" viewBox="0 0 191 234" fill="none"><path d="M149.843 143.206C126.424 138.431 105.771 123.495 94.1119 102.572C82.4283 81.6096 81.3157 55.3924 90.0979 33.1797C93.4484 24.6919 99.2557 11.5158 110.544 16.871C120.888 21.774 119.814 35.3795 119.131 44.8868C117.367 69.5208 109.55 93.5371 97.1777 114.858C83.1632 139.003 63.155 159.294 39.1209 173.509C36.4545 175.086 34.5517 170.647 37.1991 169.092C74.5919 147.1 101.917 108.983 111.381 66.6935C113.591 56.8243 115.006 46.6025 115.073 36.4714C115.113 30.7916 114.493 23.2183 108.444 20.5767C101.332 17.4767 97.7186 26.1219 95.322 31.3452C86.2559 51.12 85.8595 74.5474 94.3066 94.5869C104.102 117.824 125.581 135.171 150.117 140.547C151.776 140.919 151.532 143.55 149.843 143.206Z" fill="#BFACE3"></path><path d="M150.846 144.323C124.887 141.086 101.168 125.303 88.8723 102.075C77.2104 80.0379 75.6258 50.2557 88.047 28.1216C90.6033 23.5626 94.0012 19.2347 98.5655 16.5289C102.016 14.4877 107.603 12.4953 111.371 14.8706C115.688 17.5824 117.161 25.482 118.189 30.1076C119.521 36.0969 119.887 42.2769 119.546 48.3898C118.053 74.9854 104.228 100.457 89.2646 121.842C70.8922 148.091 46.6729 171.057 18.7302 186.872C16.744 187.995 14.7067 184.636 16.663 183.411C38.3203 169.885 57.8535 153.909 74.4025 134.382C90.0976 115.853 103.983 94.3548 111.55 71.1526C115.072 60.3456 117.123 48.7896 115.968 37.4057C115.451 32.299 114.557 26.342 112.13 21.7571C107.229 12.5286 97.8271 19.9082 93.6404 25.3997C79.5612 43.8231 80.0715 72.9719 88.2742 93.607C98.6558 119.712 123.409 138.318 151.09 142.123C152.49 142.313 152.261 144.499 150.846 144.323Z" fill="#BFACE3"></path><path d="M30.0173 190.522C27.9885 183.677 25.1448 177.374 22.0044 170.984C23.0715 171.253 24.1386 171.523 25.2056 171.792C18.3547 177.378 11.3502 182.794 4.34585 188.209C4.14971 186.899 3.96227 185.591 3.76613 184.281C12.7514 187.055 21.93 188.752 31.3092 189.456C30.5353 190.505 29.7701 191.557 28.9963 192.606C27.086 188.696 25.0202 184.875 22.7419 181.161C24.0532 180.784 25.3557 180.405 26.6636 180.037C26.1284 182.875 25.756 185.706 25.5312 188.596C25.3727 190.629 22.0984 191.305 21.4319 189.228C20.1605 185.248 19.8744 181.466 20.6641 177.345C21.016 175.508 23.8302 174.65 24.5817 176.741C25.796 180.127 32.9823 193.714 23.8142 191.71C15.5516 189.902 16.5716 180.457 19.9683 174.985C21.1928 173.021 24.1762 174.867 23.42 176.915C22.9608 178.159 22.4983 179.41 22.0392 180.653C20.7889 180.161 19.5387 179.669 18.2884 179.177C19.6882 176.64 21.015 174.084 22.2479 171.461C23.3113 169.192 26.5032 170.508 25.8337 172.872C23.9644 179.456 18.6063 183.363 13.0936 186.899C12.3556 185.666 11.6175 184.433 10.8882 183.204C14.3497 181.899 17.8112 180.594 21.2726 179.289C23.9561 178.28 25.4057 181.908 23.0154 183.294C19.7961 185.155 16.5241 186.565 12.9747 187.634C12.759 186.246 12.5434 184.858 12.3365 183.473C14.1823 183.878 15.8182 183.951 17.6862 183.663C17.5293 185.055 17.3724 186.447 17.2243 187.843C14.397 186.67 11.7588 186.163 8.74045 186.138C6.53993 186.125 6.16764 182.739 8.10749 181.989C10.1562 181.191 12.2068 180.414 14.2608 179.628C14.8189 180.91 15.377 182.193 15.9404 183.487C13.2511 184.384 10.6598 185.44 8.09874 186.648C5.6621 187.795 4.02962 183.994 6.43495 182.825C12.2427 180.017 17.365 176.377 21.9834 171.878C23.6878 170.222 26.5969 173.022 24.9885 174.815C22.4848 177.61 19.7673 179.98 16.5765 181.973C15.8524 180.755 15.125 179.547 14.4009 178.329C17.8984 176.347 22.3987 172.402 26.6401 173.32C28.3575 173.695 29.2212 175.398 28.2144 176.937C26.7162 179.215 24.7026 180.408 22.0279 180.809C19.1178 181.248 18.4186 176.732 21.3253 176.302C22.834 176.214 23.9199 175.518 24.5919 174.218C24.9206 175.37 25.2458 176.531 25.5745 177.683C23.3251 176.978 17.9463 181.219 16.1068 182.249C14.0116 183.42 11.8592 179.896 13.9311 178.605C16.8095 176.82 19.3227 174.791 21.5905 172.265C22.5905 173.24 23.5957 174.227 24.5956 175.202C19.7081 179.927 14.2124 183.7 8.08481 186.632C7.53196 185.362 6.97386 184.079 6.42102 182.809C8.98733 181.613 11.5926 180.573 14.2556 179.616C16.7801 178.704 18.4607 182.434 15.9351 183.475C13.9022 184.31 11.8727 185.135 9.83446 185.957C9.6275 184.572 9.40847 183.193 9.20152 181.808C12.6219 181.83 15.6784 182.472 18.8234 183.78C20.8067 184.6 20.5132 187.613 18.3615 187.96C16.0851 188.317 14.1271 188.298 11.8841 187.807C10.0383 187.401 8.91242 184.351 11.2458 183.645C14.7987 182.567 18.0742 181.149 21.29 179.296C21.8692 180.627 22.4484 181.958 23.0328 183.301C19.5747 184.597 16.1045 185.898 12.6465 187.194C10.4817 188.007 8.21866 184.84 10.4411 183.499C15.4144 180.493 20.4594 177.304 22.2861 171.466C23.4842 171.937 24.6737 172.405 25.8718 172.877C24.6684 175.502 23.4162 178.097 22.086 180.662C20.9116 182.907 17.3996 181.665 18.3353 179.186C18.8031 177.946 19.283 176.701 19.7509 175.461C20.9015 176.105 22.0521 176.748 23.2026 177.391C22.0518 179.195 21.2793 181.106 21.6778 183.279C21.785 183.872 23.5625 188.833 25.1739 187.593C24.904 188.278 24.6375 188.956 24.3675 189.642C24.2143 186.082 21.9742 181.761 20.8536 178.392C22.1554 178.193 23.4693 177.988 24.7711 177.788C24.1382 181.129 24.31 184.285 25.3901 187.527C24.0226 187.741 22.6584 187.946 21.2908 188.16C21.474 185.274 21.8169 182.441 22.3052 179.595C22.5991 177.906 25.1099 176.698 26.2269 178.471C28.7615 182.477 31.0749 186.586 33.1708 190.84C33.9489 192.43 32.4768 194.107 30.8579 193.991C21.0715 193.278 11.492 191.453 2.11285 188.584C0.420661 188.068 0.244443 185.662 1.53312 184.656C8.52015 179.233 15.5192 173.806 22.6442 168.568C23.7485 167.75 25.2494 168.14 25.8454 169.377C28.9343 175.847 31.125 182.815 33 189.72C33.4335 191.345 30.5153 192.212 30.0173 190.522Z" fill="#BFACE3"></path></svg>