<svg xmlns="http://www.w3.org/2000/svg" width="40" height="38" viewBox="0 0 40 38" fill="none"><path fill-rule="evenodd" clip-rule="evenodd" d="M17.7649 13.7245C14.0518 10.6723 11.0432 7.03753 8.78232 2.80274C8.33014 1.95926 7.278 1.63752 6.42583 2.08969C5.58235 2.54187 5.26055 3.59406 5.71273 4.44623C8.19968 9.08102 11.4867 13.0636 15.5563 16.4115C16.2954 17.0202 17.3997 16.9158 18.0084 16.1767C18.6171 15.4288 18.504 14.3332 17.7649 13.7245Z" fill="#3E53AC"></path><path fill-rule="evenodd" clip-rule="evenodd" d="M15.7848 1.83756C15.9761 5.3506 16.15 8.86364 16.3674 12.3767C16.4283 13.3332 17.2544 14.0636 18.2109 14.0028C19.1674 13.9419 19.8978 13.1158 19.837 12.1593C19.6196 8.65495 19.4456 5.15062 19.2543 1.63757C19.2021 0.683661 18.3761 -0.0511259 17.4195 0.00278717C16.463 0.0567002 15.7239 0.878427 15.7848 1.83756Z" fill="#3E53AC"></path><path fill-rule="evenodd" clip-rule="evenodd" d="M28.6943 2.55041C26.4682 5.90693 23.9466 9.00255 21.4075 12.133C20.7988 12.8808 20.9117 13.9765 21.6596 14.5765C22.4074 15.1852 23.5031 15.0721 24.1031 14.3243C26.7118 11.1156 29.3031 7.92429 31.5987 4.47212C32.1292 3.67212 31.903 2.59389 31.103 2.06346C30.3117 1.53302 29.2247 1.75041 28.6943 2.55041Z" fill="#3E53AC"></path><path fill-rule="evenodd" clip-rule="evenodd" d="M37.3175 15.0289C31.2827 15.2984 24.874 15.3071 18.8392 14.9245C17.8827 14.8724 17.0566 15.5941 16.9957 16.5593C16.9349 17.5158 17.6653 18.3419 18.6218 18.4028C24.7783 18.7854 31.3175 18.7767 37.474 18.5071C38.4306 18.4637 39.1783 17.6463 39.1348 16.6898C39.0914 15.7333 38.274 14.9854 37.3175 15.0289Z" fill="#3E53AC"></path><path fill-rule="evenodd" clip-rule="evenodd" d="M15.5515 16.1329C19.2733 20.6894 23.1255 25.159 26.5777 29.9242C27.1429 30.6981 28.2299 30.872 29.0125 30.3068C29.7864 29.7416 29.9603 28.6546 29.3951 27.8807C25.8994 23.0633 22.0038 18.5415 18.2386 13.9328C17.6299 13.1937 16.5342 13.0807 15.795 13.6894C15.0472 14.2981 14.9428 15.3937 15.5515 16.1329Z" fill="#3E53AC"></path><path fill-rule="evenodd" clip-rule="evenodd" d="M16.6787 17.4555C17.6526 22.2033 17.9222 26.7425 17.9917 31.5512C18.0004 32.5077 18.7917 33.2729 19.7483 33.2642C20.7135 33.2468 21.4787 32.4642 21.4613 31.4989C21.3917 26.4642 21.1048 21.7251 20.0874 16.7512C19.8874 15.812 18.9744 15.2033 18.0265 15.4033C17.0874 15.5946 16.4787 16.5164 16.6787 17.4555Z" fill="#3E53AC"></path><path fill-rule="evenodd" clip-rule="evenodd" d="M16.8357 17.0728C14.0183 22.7076 12.5661 28.9685 9.54872 34.4815C9.08785 35.3163 9.40083 36.3772 10.2443 36.838C11.0878 37.2989 12.14 36.9858 12.6009 36.151C15.6357 30.6032 17.1052 24.3076 19.9487 18.6293C20.3748 17.7685 20.0269 16.725 19.1748 16.2902C18.3139 15.8641 17.2705 16.212 16.8357 17.0728Z" fill="#3E53AC"></path><path fill-rule="evenodd" clip-rule="evenodd" d="M18.3862 15.7943C12.7775 16.7856 7.17752 17.2378 1.53404 17.9074C0.577523 18.0204 -0.100738 18.8813 0.0123056 19.8378C0.125349 20.7943 0.986299 21.4726 1.94282 21.3596C7.64717 20.69 13.3167 20.2204 18.995 19.2204C19.9341 19.0465 20.5689 18.1421 20.4037 17.203C20.2298 16.2552 19.334 15.6204 18.3862 15.7943Z" fill="#3E53AC"></path><path fill-rule="evenodd" clip-rule="evenodd" d="M22.2891 13.1511C21.1326 13.0989 20.0369 13.0206 18.9065 12.8554C17.95 12.7163 17.0717 13.3772 16.9326 14.325C16.7934 15.2728 17.4543 16.1598 18.4021 16.2989C19.6543 16.4815 20.863 16.5685 22.1325 16.6206C23.0891 16.6641 23.9064 15.925 23.9412 14.9597C23.9847 14.0032 23.2456 13.1946 22.2891 13.1511Z" fill="#3E53AC"></path></svg>